<?xml version="1.0" encoding="utf-8"?>
<!-- Generator: Adobe Illustrator 17.0.0, SVG Export Plug-In . SVG Version: 6.00 Build 0)  -->
<!DOCTYPE svg PUBLIC "-//W3C//DTD SVG 1.1//EN" "http://www.w3.org/Graphics/SVG/1.1/DTD/svg11.dtd">
<svg version="1.1" id="Layer_1" xmlns="http://www.w3.org/2000/svg" xmlns:xlink="http://www.w3.org/1999/xlink" x="0px" y="0px"
	 width="1080px" height="1080px" viewBox="0 0 1080 1080" enable-background="new 0 0 1080 1080" xml:space="preserve">
<g>
	<g>
		<defs>
			<ellipse id="SVGID_1_" cx="545.826" cy="555.373" rx="423.927" ry="423.961"/>
		</defs>
		<clipPath id="SVGID_2_">
			<use xlink:href="#SVGID_1_"  overflow="visible"/>
		</clipPath>
		<g clip-path="url(#SVGID_2_)">
			<rect x="112.66" y="50" fill="#A6CDED" width="867.776" height="982.561"/>
			<g>
				<path fill="#978FAB" d="M926.879,1014.803H161.865c-6.03,0-10.964-4.934-10.964-10.965l0,0c0-6.031,4.934-10.965,10.964-10.965
					h765.014c6.03,0,10.964,4.934,10.964,10.965l0,0C937.843,1009.869,932.909,1014.803,926.879,1014.803z"/>
				<g>
					<g>
						<g>
							<g>
								<path fill="#FCCBB5" d="M758.973,372.325l7.265-30.728c0.464-1.961-0.761-3.945-2.722-4.408l-0.813-0.192
									c-1.961-0.464-3.944,0.761-4.408,2.722l-7.265,30.728c-0.464,1.961,0.761,3.945,2.722,4.408l0.813,0.192
									C756.525,375.511,758.509,374.286,758.973,372.325z"/>
								<path fill="#FCCBB5" d="M759.857,382.968l10.097-23.435c0.797-1.851-0.064-4.017-1.915-4.814l-0.768-0.331
									c-1.85-0.797-4.017,0.064-4.814,1.915l-10.097,23.435c-0.797,1.851,0.064,4.017,1.915,4.814l0.768,0.331
									C756.893,385.68,759.06,384.818,759.857,382.968z"/>
								<path fill="#FCCBB5" d="M752.748,384.973l-0.646-25.509c-0.051-2.014-1.741-3.621-3.755-3.57l-0.836,0.021
									c-2.014,0.051-3.62,1.741-3.569,3.755l0.646,25.509c0.051,2.014,1.741,3.621,3.755,3.57l0.836-0.021
									C751.193,388.677,752.799,386.987,752.748,384.973z"/>
								<path fill="#FCCBB5" d="M764.223,392.445l11.776-27.645c0.79-1.854-0.081-4.017-1.934-4.806l-0.769-0.328
									c-1.854-0.79-4.016,0.081-4.806,1.935l-11.776,27.645c-0.79,1.854,0.081,4.017,1.935,4.806l0.769,0.328
									C761.27,395.169,763.433,394.299,764.223,392.445z"/>
								<path fill="#FCCBB5" d="M768.822,399.622l11.776-27.645c0.79-1.854-0.081-4.017-1.935-4.806l-0.769-0.328
									c-1.854-0.79-4.016,0.081-4.806,1.935l-11.776,27.646c-0.79,1.854,0.081,4.017,1.935,4.806l0.769,0.328
									C765.87,402.346,768.033,401.475,768.822,399.622z"/>
							</g>
							<path fill="#FCCBB5" d="M753.969,359.806c-0.124,0.303-1.964,3.54-3.969,7.041c-3.463,6.046-5.435,12.831-5.758,19.791
								l-0.618,13.328c0,0,21.128,3.81,21.734,3.065c14.79-18.205,9.431-30.196,9.431-30.196L753.969,359.806z"/>
						</g>
						<polygon fill="#FFFFFF" points="737.705,398.889 742.121,387.603 774.504,401.342 767.635,414.1 						"/>
						<g>
							<path fill="#15244B" d="M774.013,409.684c0,0-28.373,69.442-28.458,69.679c-8.341,21.462-29.503,37.992-52.5,35.33
								c-3.446-0.399-12.038-2.623-15.701-3.925c-4.609-1.643-54.449-32.857-54.449-32.857l-5.93-56.631
								c0,0,61.507,43.107,65.056,45.351c6.077,3.843,14.271,5.579,17.499,4.349c5.675-2.081,8.201-4.695,11.031-9.46
								c13.973-23.448,27.15-67.527,27.15-67.527L774.013,409.684z"/>
						</g>
					</g>
					<path fill="#5B183B" d="M616.633,936.637c-0.204,2.721-1.278,41.568-1.278,41.568l28.728,0.536l-0.637-48.692L616.633,936.637z
						"/>
					<path fill="#111740" d="M603.396,672.551c-0.049,0.327-0.021,2.132,0.075,5.224c1.407,45.24,9.333,291.997,9.333,291.997
						l37.056-1.26l9.801-288.871L603.396,672.551z"/>
					<path fill="#666475" d="M612.694,1002.009l75.791,0.548c4.52,0.033,8.208-3.626,8.237-8.173l0,0
						c0.023-3.501-2.158-6.635-5.437-7.812l-37.412-13.43l-40.994,0.709L612.694,1002.009z"/>
					<g>
						
							<line fill="none" stroke="#111740" stroke-width="1.4638" stroke-linecap="round" stroke-miterlimit="10" x1="652.955" y1="984.292" x2="661.848" y2="974.72"/>
						
							<line fill="none" stroke="#111740" stroke-width="1.4638" stroke-linecap="round" stroke-miterlimit="10" x1="659.478" y1="987.057" x2="668.371" y2="977.485"/>
						
							<line fill="none" stroke="#111740" stroke-width="1.4638" stroke-linecap="round" stroke-miterlimit="10" x1="665.726" y1="990.759" x2="675.737" y2="979.906"/>
					</g>
					<path fill="#5B183B" d="M551.597,936.163c-0.156,2.708-0.545,41.341-0.545,41.341l28.733,0.023l-1.495-48.388L551.597,936.163z
						"/>
					<path fill="#111740" d="M533.709,673.894c-0.044,0.326,0.016,2.12,0.167,5.191c2.204,44.944,14.476,290.081,14.476,290.081
						l37.027-1.909l4.711-287.312L533.709,673.894z"/>
					<path fill="#787385" d="M548.226,1001.362l75.735,2.928c4.516,0.175,8.319-3.345,8.494-7.862l0,0
						c0.134-3.478-1.946-6.661-5.185-7.934l-36.966-14.521l-40.996-0.585L548.226,1001.362z"/>
					<g>
						
							<line fill="none" stroke="#111740" stroke-width="1.4595" stroke-linecap="round" stroke-miterlimit="10" x1="589.031" y1="985.023" x2="598.224" y2="975.792"/>
						
							<line fill="none" stroke="#111740" stroke-width="1.4595" stroke-linecap="round" stroke-miterlimit="10" x1="595.463" y1="987.976" x2="604.656" y2="978.745"/>
						
							<line fill="none" stroke="#111740" stroke-width="1.4595" stroke-linecap="round" stroke-miterlimit="10" x1="601.589" y1="991.851" x2="611.94" y2="981.382"/>
					</g>
					<path fill="#111740" d="M661.647,666.006c0.796,8.242-1.408,16.079-5.711,22.437c-5.501,8.156-14.49,13.888-25.069,14.911
						l-57.256,5.533c-1.703,0.165-3.381,0.199-5.036,0.103c-4.26-0.192-8.343-1.205-12.088-2.872
						c-0.667-0.283-1.32-0.604-1.956-0.945c-9.914-5.166-17.108-15.095-18.263-27.05l-0.705-18.271l123.229-12.987L661.647,666.006z
						"/>
					<g>
						<path fill="#F7AD92" d="M589.659,429.713l-12.078,1.372c-7.414,0.842-14.17-4.535-15.012-11.95l-5.157-45.399
							c-0.842-7.415,4.535-14.171,11.949-15.013l12.078-1.372c7.414-0.842,14.17,4.535,15.012,11.95l5.157,45.399
							C602.451,422.115,597.074,428.871,589.659,429.713z"/>
						<path fill="#010101" d="M649.242,311.397c0.039,0.919,0.06,1.839,0.062,2.759c-0.016,4.435-0.486,8.795-1.395,12.987
							c-3.869,17.94-15.541,33.116-31.446,41.579c-7.897,4.21-16.843,6.755-26.388,7.166c-15.452,0.665-28.022,8.137-39.245-0.775
							c-3.618-2.869-6.914-6.11-9.792-9.706c-1.132-1.417-2.208-2.855-3.212-4.352c-6.123-9.131-11.73-32.562-12.237-44.34
							c-1.428-33.213,23.585-61.439,56.357-64.332c0.936-0.078,1.873-0.137,2.81-0.177c20.815-0.895,39.653,8.591,51.546,23.88
							c0.019,0.018,0.019,0.018,0.019,0.018c3.481,4.491,6.364,9.496,8.53,14.871C647.396,297.31,648.932,304.196,649.242,311.397z"
							/>
						<g>
							<path fill="#FBC8C0" d="M568.777,333.325c0.08,1.346-0.082,2.665-0.491,3.901c-0.454,1.481-1.224,3.089-2.262,4.268
								c-1.884,2.119-4.536,3.757-7.592,3.94l-6.566,0.398l-5.037,0.316l-0.947-14.948l0.018-0.002l-0.186-2.763l-0.134-2.146
								l-0.114-1.965l-0.039-0.508l0.018-0.002l11.586-0.713c2.927-0.186,5.657,0.786,7.757,2.507
								c1.273,1.046,2.305,2.394,3.008,3.908C568.368,330.697,568.695,331.961,568.777,333.325z"/>
							<path fill="#FCCBB5" d="M647.346,318.006l1.5,24.172l0.228,3.619c0.161,2.381,0.12,4.767-0.057,7.077
								c-1.711,21.697-17.472,39.991-38.775,45.122c-0.638,0.182-1.301,0.312-1.948,0.423c-2.288,0.498-4.618,0.781-7.017,0.944
								c-2.327,0.154-4.602,0.119-6.873-0.044c-4.43-0.302-8.724-1.188-12.783-2.577c0,0-0.018,0.002-0.038-0.014
								c-17.681-6.032-31.155-21.462-33.941-40.506c-0.084-0.576-0.166-1.135-0.214-1.715c-0.112-0.665-0.154-1.356-0.196-2.047
								l-0.041-0.362l-0.112-1.635l-0.252-4.313l-0.949-14.801l0.002-0.147l-0.002-0.019l-0.165-2.746l-0.134-2.146l-0.114-1.965
								l-0.021-0.51c-0.187-3.423,0.126-6.792,0.763-10.051c0.418-2.282,1.006-4.529,1.694-6.695
								c0.087-0.358,0.181-0.662,0.291-0.986c0.566-1.786,1.261-3.569,2.039-5.269c-0.002-0.018,0.014-0.038,0.014-0.038
								c2.944-6.489,7.246-12.307,12.57-17.033c1.065-0.945,2.17-1.858,3.299-2.719c7.881-5.914,17.488-9.698,28-10.343
								c14.059-0.865,27.302,3.987,37.124,12.578c5.264,4.585,9.02,10.239,12.016,16.622c1.156,2.433,2.012,4.973,2.621,7.597
								C646.679,310.847,647.134,314.367,647.346,318.006z"/>
							<path fill="#FBC8C0" d="M550.929,330.829l0.935,15.005l0.62,10.131l-3.983,0.251c-0.291,0.014-0.582,0.03-0.86,0.006
								c-6.69-0.045-12.346-5.502-12.773-12.157c-0.227-3.454,1.039-6.492,3.216-8.938c1.95-2.181,4.69-3.537,7.796-3.926
								l0.018-0.002c0.357-0.077,0.665-0.112,1.031-0.117L550.929,330.829z"/>
						</g>
						<path fill="#F7AD92" d="M599.864,399.339c0,0-8.972,1.63-18.243-2.598c0,0-0.018,0.002-0.038-0.014
							c-17.681-6.032-31.155-21.462-33.941-40.506c-6.69-0.045-12.346-5.502-12.773-12.157c-0.227-3.454,1.039-6.492,3.216-8.938
							c1.95-2.181,4.69-3.537,7.796-3.926l-0.002-0.019l-0.165-2.746l-0.134-2.146l-0.114-1.965l-0.039-0.508l0.018-0.002
							c-0.187-3.423,0.126-6.792,0.763-10.051c6.401-4.593,13.28-6.107,18.212,1.997c0,0,0.042,3.915,0.368,9.849
							c0.23,4.443,0.605,10.005,1.237,15.886c1.264,12.092,3.521,25.517,7.562,33.355
							C582.189,391.585,599.864,399.339,599.864,399.339z"/>
						<path fill="#010101" d="M646.375,282.834l-83.503,9.487c-4.804,0.546-9.182-2.939-9.727-7.743l-0.226-1.993
							c-0.546-4.805,2.938-9.182,7.743-9.728l83.503-9.487c4.804-0.546,9.182,2.939,9.727,7.743l0.226,1.993
							C654.664,277.91,651.179,282.288,646.375,282.834z"/>
						<path fill="#010101" d="M664.019,288.821c1.294,4.295,0.235,8.624-2.261,11.76c-2.051,2.578-5.106,4.39-8.613,4.788
							l-74.323,8.444c-10.66,1.211-18.32,10.835-17.109,21.496l1.365,12.016c0.453,3.988-2.439,7.622-6.427,8.075l-1.718,0.195
							c-4.004,0.455-7.619-2.423-8.074-6.427l-4.112-36.202c-0.033-0.289-0.046-0.562-0.04-0.838
							c-1.604-1.869-2.679-4.238-2.975-6.842c-0.401-3.526,0.683-6.891,2.732-9.486c2.051-2.578,5.106-4.39,8.613-4.788
							l98.63-11.205C655.999,279.091,662.192,282.757,664.019,288.821z"/>
						<g>
							<path fill="#010101" d="M642.315,320.336l-16.558,1.881c-1.413,0.161-2.701-0.864-2.862-2.278l-0.067-0.586
								c-0.161-1.414,0.864-2.701,2.278-2.862l16.558-1.881c1.413-0.161,2.701,0.864,2.862,2.278l0.067,0.586
								C644.754,318.888,643.729,320.176,642.315,320.336z"/>
							<path fill="#010101" d="M603.441,324.753l-16.558,1.881c-1.413,0.16-2.701-0.865-2.862-2.278l-0.067-0.586
								c-0.16-1.414,0.865-2.701,2.278-2.862l16.558-1.881c1.413-0.161,2.701,0.864,2.862,2.278l0.067,0.586
								C605.879,323.304,604.854,324.592,603.441,324.753z"/>
							<path fill="#FFFFFF" d="M610.06,365.299c2.918,3.357,6.478,4.356,10.33,4.118c4.594-0.284,9.513-2.912,10.66-6.751
								L610.06,365.299z"/>
							<path fill="#F7AD92" d="M626.437,350.204c0.016,0.076-0.31,0.026-0.31,0.026c0.216,2.577-1.777,4.869-7.305,5.336
								l-2.947-20.168C622.599,342.19,625.556,346.051,626.437,350.204z"/>
						</g>
					</g>
					<path fill="#121333" d="M538.746,692.596c0,0,50.346-5.46,49.74-7.28c-0.607-1.82-0.607-23.052-0.607-23.052
						s40.034-6.673,40.034-4.246c0,2.426,3.639,21.232,3.639,21.232l29.723-5.46l-0.607-31.545l-129.202,13.346L538.746,692.596z"/>
					<g>
						<g>
							
								<rect x="567.18" y="409.403" transform="matrix(0.9962 -0.087 0.087 0.9962 -43.551 53.6534)" fill="#ECEDEF" width="53.683" height="234.546"/>
						</g>
						<polygon fill="#E03C37" points="588.373,434.052 573.271,416.096 585,407.613 600.136,413.751 						"/>
						<polygon fill="#FFFFFF" points="611.308,420.294 585.992,408.516 557.97,425.805 556.387,407.675 609.716,403.915 						"/>
						<g>
							<polygon fill="#9C98AC" points="634.03,651.187 578.067,656.934 577.068,645.487 633.031,639.74 							"/>
						</g>
						
							<rect x="601.887" y="642.382" transform="matrix(0.9962 -0.087 0.087 0.9962 -54.0592 55.6471)" fill="#16224A" width="19.562" height="11.829"/>
					</g>
					<path fill="#15244B" d="M580.145,678.728c0,0-11.392,3.786-28.661,5.605c-6.278,0.674-13.339,1.092-20.909,0.965
						c-0.455,0-0.892-0.164-1.31-0.291L517.036,524.11c-3.221-26.934-2.275-41.22-2.62-63.441c-0.055-3.058-0.127-6.26-0.237-9.664
						c-0.073-2.02,0.145-3.913,0.6-5.715c2.366-9.445,11.301-16.033,21.073-20.947c5.878-2.948,12.065-5.296,17.288-7.262
						c2.438-0.928,0.964-0.145,3.585-0.509L580.145,678.728z"/>
					<path fill="#15244B" d="M668.549,668.937l-9.936,0.928l-22.82,2.111c0,0-26.605-256.878-24.257-256.004
						c3.985,1.492,8.28,3.803,12.502,6.825c8.662,6.17,17.015,15.323,21.691,26.461c1.347,3.167,2.384,6.515,3.021,9.992
						c0.036,0.127,0.073,0.273,0.091,0.4C652.808,481.597,668.549,668.937,668.549,668.937z"/>
					
						<line fill="none" stroke="#9C98AC" stroke-width="1.4595" stroke-miterlimit="10" x1="588.661" y1="434.962" x2="608.679" y2="644.25"/>
					<path fill="#2E3869" d="M568.419,543.971c1.085,2.17-26.641-78.255-26.641-78.255l9.05-9.1l-16.02-32.24l21.262-14.176
						C556.071,410.201,566.6,540.331,568.419,543.971z"/>
					<path fill="#2E3869" d="M622.761,543.018c-0.664,2.334,11.218-81.549,11.218-81.549l-10.107-7.553l7.5-29.983l-22.148-16.391
						C609.225,407.543,623.876,539.104,622.761,543.018z"/>
					<g>
						<path fill="#F7AD92" d="M548.517,698.298c0.135-0.307,15.785-14.901,13.465-18.315c-3.863-5.685-9.112-11.544-14.522-16.185
							l-10.359-8.887c0,0-13.119,13.492-13.829,14.171c-9.876,9.449,12.806,24.578,12.806,24.578S545.5,705.15,548.517,698.298z"/>
					</g>
					<g>
						<path fill="#F7AD92" d="M548.99,679.477l24.102,21.504c1.538,1.372,3.919,1.236,5.291-0.302l0.569-0.638
							c1.372-1.538,1.236-3.919-0.302-5.292l-24.101-21.503c-1.538-1.372-3.919-1.236-5.291,0.302l-0.569,0.638
							C547.316,675.723,547.452,678.105,548.99,679.477z"/>
					</g>
					<g>
						<path fill="#F7AD92" d="M547.421,691.31l19.478,17.378c1.538,1.372,3.919,1.236,5.291-0.302l0.569-0.638
							c1.372-1.538,1.236-3.919-0.302-5.292l-19.478-17.378c-1.538-1.372-3.919-1.236-5.291,0.302l-0.569,0.638
							C545.748,687.557,545.883,689.938,547.421,691.31z"/>
					</g>
					<g>
						<path fill="#F7AD92" d="M531.8,690.571l22.937,20.464c1.538,1.372,3.919,1.236,5.291-0.302l0.569-0.638
							c1.372-1.538,1.236-3.919-0.302-5.292l-22.937-20.464c-1.538-1.372-3.919-1.236-5.291,0.302l-0.569,0.638
							C530.127,686.818,530.262,689.199,531.8,690.571z"/>
					</g>
					<g>
						<path fill="#F7AD92" d="M535.593,664.558l29.773,12.523c1.9,0.799,4.108-0.102,4.907-2.002l0.331-0.788
							c0.802-1.908-0.094-4.105-2.002-4.908L538.83,656.86c-1.9-0.799-4.108,0.102-4.907,2.002l-0.331,0.788
							C532.792,661.55,533.693,663.758,535.593,664.558z"/>
					</g>
					<g>
						<polygon fill="#FFFFFF" points="544.464,654.981 541.444,652.288 534.737,646.322 515.542,667.842 511.527,672.358 
							512.817,673.505 515.639,676.039 521.238,681.027 522.308,679.823 535.834,664.65 541.312,658.516 541.71,658.077 						"/>
					</g>
					<g>
						<path fill="#15244B" d="M533.171,461.757l-9.167-22.726l-2.505-2.128c-0.313,0.369-4.582,5.429-10.604,13.681
							c-5.139,7.051-11.576,16.445-17.93,27.26c-19.453,33.114-28.553,62.768-27.067,88.158
							c3.087,52.771,42.878,106.975,44.568,109.256l2.351-1.752l4.329-3.205l17.822-13.214l2.509-1.843l3.968-2.956l2.696-1.992
							c-0.319-0.446-34.028-46.558-36.387-86.752c-1.792-30.631,13.413-53.8,28.957-74.186
							C538.929,486.464,531.494,463.731,533.171,461.757z"/>
					</g>
					<polygon fill="#E03C37" points="584.112,426.772 588.661,572.364 603.219,591.018 612.773,571.454 591.391,426.772 					"/>
					<path fill="none" stroke="#111740" stroke-width="1.9162" stroke-linecap="round" stroke-miterlimit="10" d="M591.333,340.932
						c0,0,2.738-5.514,7.843-5.794c5.104-0.279,7.563,3.465,7.563,3.465"/>
					<path fill="none" stroke="#111740" stroke-width="1.7466" stroke-linecap="round" stroke-miterlimit="10" d="M627.928,335.845
						c0,0,1.664-5.75,5.911-6.083c4.247-0.333,7.334,3.593,7.334,3.593"/>
				</g>
				<g>
					<g>
						<g>
							<path fill="#12264A" d="M756.508,558.691L756.508,558.691c-5.432-5.794-4.962-14.735,1.051-19.969l0.68-0.592
								c6.013-5.235,15.291-4.781,20.723,1.013l0,0c5.432,5.794,4.962,14.735-1.051,19.969l-0.68,0.592
								C771.218,564.939,761.94,564.485,756.508,558.691z"/>
							<path fill="#F26539" d="M768.045,586.81l-14.289,12.44l-40.574-43.276l14.289-12.44c9.901-8.619,24.102-9.765,35.123-3.783
								c2.784,1.506,5.359,3.462,7.619,5.872c5.597,5.97,8.158,13.565,7.776,21.026C777.586,574.11,774.24,581.416,768.045,586.81z"
								/>
							<path fill="#FBAB41" d="M755.135,573.041l-14.289,12.44l-27.664-29.506l14.289-12.44c9.901-8.619,24.102-9.765,35.123-3.783
								c1.894,4.174,2.718,8.673,2.484,13.129C764.676,560.34,761.33,567.647,755.135,573.041z"/>
						</g>
						<path fill="#333A66" d="M754.495,599.084c-4.31,3.849-17.049-2.582-28.453-14.391c-11.404-11.809-17.168-24.507-12.851-28.368
							c3.4-3.052,12.08,0.333,21.209,7.722c2.404,1.963,4.855,4.196,7.233,6.662c2.781,2.884,5.232,5.817,7.275,8.665
							C755.258,588.188,757.753,596.168,754.495,599.084z"/>
						<path fill="#FFFFFF" d="M748.908,579.374c-3.301,3.638-8.918,4.675-13.469,2.198c-5.198-2.829-7.038-9.205-4.095-14.225
							c0.785-1.339,1.835-2.457,3.056-3.3c2.404,1.963,4.855,4.196,7.233,6.662C744.414,573.593,746.865,576.526,748.908,579.374z"
							/>
					</g>
					<polyline fill="none" stroke="#12264A" stroke-width="4.647" stroke-miterlimit="10" points="828.673,698.636 865.714,579.063 
						790.706,529.092 774.963,542.477 					"/>
					<g>
						<ellipse fill="#12264A" cx="789.719" cy="529.803" rx="9.223" ry="8.887"/>
						<ellipse fill="#333A66" cx="789.719" cy="529.803" rx="4.611" ry="4.444"/>
					</g>
					<path fill="#FBAB41" d="M865.96,713.783h-95.423l0,0c0-10.471,8.488-18.959,18.958-18.959h57.508
						C857.472,694.824,865.96,703.312,865.96,713.783L865.96,713.783z"/>
					<rect x="790.211" y="690.084" fill="#12264A" width="17.216" height="5.214"/>
					<g>
						<ellipse fill="#12264A" cx="864.976" cy="580.282" rx="12.912" ry="12.442"/>
						<ellipse fill="#333A66" cx="864.976" cy="580.282" rx="6.456" ry="6.221"/>
					</g>
				</g>
				<g>
					<g>
						<path fill="#5E2040" d="M919.322,686.04h-86.683V655.76h86.683c4.163,0,7.538,3.375,7.538,7.539v15.203
							C926.86,682.665,923.485,686.04,919.322,686.04z"/>
						<path fill="#5E2040" d="M887.45,686.04h-86.683V655.76h86.683c4.163,0,7.538,3.375,7.538,7.539v15.203
							C894.988,682.665,891.614,686.04,887.45,686.04z"/>
						<path fill="#E9EAEC" d="M883.24,681.88h-82.472v-23.101h82.472c3.566,0,6.457,2.891,6.457,6.458v10.185
							C889.697,678.989,886.806,681.88,883.24,681.88z"/>
						<rect x="901.562" y="667.712" fill="#FFFFFF" width="19.92" height="2.191"/>
						<rect x="901.562" y="672.406" fill="#FFFFFF" width="19.92" height="2.191"/>
					</g>
					<g>
						<path fill="#5E2040" d="M933.521,632.454h-86.683v-30.281h86.683c4.163,0,7.538,3.375,7.538,7.539v15.203
							C941.059,629.078,937.684,632.454,933.521,632.454z"/>
						<path fill="#5E2040" d="M901.649,632.454h-86.683v-30.281h86.683c4.163,0,7.538,3.375,7.538,7.539v15.203
							C909.187,629.078,905.812,632.454,901.649,632.454z"/>
						<path fill="#E9EAEC" d="M898.547,629.402h-83.58v-24.209h83.58c3.566,0,6.457,2.891,6.457,6.458v11.293
							C905.004,626.51,902.113,629.402,898.547,629.402z"/>
						<rect x="913.387" y="611.735" fill="#E9EAEC" width="24.368" height="10.758"/>
						<rect x="915.761" y="614.126" fill="#12264A" width="19.92" height="2.191"/>
						<rect x="915.761" y="617.712" fill="#12264A" width="19.92" height="2.191"/>
					</g>
					<g>
						<path fill="#12264A" d="M925.696,714.727h-86.683v-30.281h86.683c4.163,0,7.538,3.375,7.538,7.539v15.203
							C933.234,711.352,929.859,714.727,925.696,714.727z"/>
						<path fill="#12264A" d="M893.825,714.727h-86.683v-30.281h86.683c4.163,0,7.538,3.375,7.538,7.539v15.203
							C901.363,711.352,897.988,714.727,893.825,714.727z"/>
						<path fill="#E9EAEC" d="M889.614,710.567h-82.472v-21.993h82.472c3.566,0,6.457,2.891,6.457,6.458v9.077
							C896.071,707.675,893.18,710.567,889.614,710.567z"/>
						<rect x="905.563" y="694.009" fill="#E9EAEC" width="24.368" height="10.758"/>
						<rect x="907.936" y="696.399" fill="#12264A" width="19.92" height="2.191"/>
						<rect x="907.936" y="699.985" fill="#12264A" width="19.92" height="2.191"/>
					</g>
					<g>
						<path fill="#D04334" d="M821.216,632.235v23.548h100.575c6.499,0,11.773-5.275,11.773-11.774c0-3.243-1.318-6.19-3.444-8.329
							c-2.139-2.126-5.086-3.445-8.329-3.445H821.216z"/>
						<path fill="#F47C52" d="M809.53,632.235v23.548h84.639c6.499,0,11.773-5.275,11.773-11.774c0-3.243-1.318-6.19-3.445-8.329
							c-2.139-2.126-5.086-3.445-8.328-3.445H809.53z"/>
						<path fill="#E9EAEC" d="M809.53,636.271v15.097h81.464c4.171,0,7.548-3.377,7.548-7.549c0-2.085-0.847-3.969-2.207-5.342
							c-1.372-1.359-3.256-2.207-5.341-2.207H809.53z"/>
					</g>
					<g>
						
							<line fill="none" stroke="#978FAB" stroke-width="1.2781" stroke-miterlimit="10" x1="814.957" y1="608.745" x2="902.083" y2="608.745"/>
						
							<line fill="none" stroke="#978FAB" stroke-width="1.2781" stroke-miterlimit="10" x1="814.957" y1="613.792" x2="902.083" y2="613.792"/>
						
							<line fill="none" stroke="#978FAB" stroke-width="1.2781" stroke-miterlimit="10" x1="814.957" y1="618.839" x2="902.083" y2="618.839"/>
						
							<line fill="none" stroke="#978FAB" stroke-width="1.2781" stroke-miterlimit="10" x1="814.957" y1="623.885" x2="902.083" y2="623.885"/>
					</g>
					<g>
						
							<line fill="none" stroke="#978FAB" stroke-width="1.2781" stroke-miterlimit="10" x1="800.701" y1="663.197" x2="888.348" y2="663.197"/>
						
							<line fill="none" stroke="#978FAB" stroke-width="1.2781" stroke-miterlimit="10" x1="800.701" y1="668.244" x2="888.348" y2="668.244"/>
						
							<line fill="none" stroke="#978FAB" stroke-width="1.2781" stroke-miterlimit="10" x1="800.701" y1="673.29" x2="888.348" y2="673.29"/>
						
							<line fill="none" stroke="#978FAB" stroke-width="1.2781" stroke-miterlimit="10" x1="800.701" y1="678.337" x2="888.348" y2="678.337"/>
					</g>
					<g>
						
							<line fill="none" stroke="#978FAB" stroke-width="1.2781" stroke-miterlimit="10" x1="807.341" y1="692.149" x2="894.988" y2="692.149"/>
						
							<line fill="none" stroke="#978FAB" stroke-width="1.2781" stroke-miterlimit="10" x1="807.341" y1="697.196" x2="894.988" y2="697.196"/>
						
							<line fill="none" stroke="#978FAB" stroke-width="1.2781" stroke-miterlimit="10" x1="807.341" y1="701.135" x2="894.988" y2="701.135"/>
						
							<line fill="none" stroke="#978FAB" stroke-width="1.2781" stroke-miterlimit="10" x1="807.341" y1="706.181" x2="894.988" y2="706.181"/>
					</g>
				</g>
				<rect x="314.127" y="738.853" fill="#132F51" width="25.497" height="276.244"/>
				<g>
					<g>
						<path fill="#F8A181" d="M680.61,674.604l25.276,7.247c1.846,0.529,3.789-0.548,4.318-2.394l0,0
							c0.529-1.846-0.548-3.789-2.394-4.319l-25.276-7.247c-1.846-0.529-3.789,0.548-4.318,2.394l0,0
							C677.687,672.131,678.764,674.075,680.61,674.604z"/>
						<path fill="#F8A181" d="M687.579,682.977l20.295,5.819c1.846,0.529,3.789-0.548,4.318-2.394l0,0
							c0.529-1.846-0.548-3.789-2.394-4.319l-20.295-5.819c-1.846-0.529-3.789,0.548-4.318,2.394l0,0
							C684.656,680.505,685.733,682.448,687.579,682.977z"/>
						<path fill="#F8A181" d="M681.811,687.691l24.021,6.887c1.846,0.529,3.789-0.548,4.318-2.394l0,0
							c0.529-1.846-0.548-3.789-2.394-4.319l-24.021-6.887c-1.846-0.529-3.789,0.548-4.318,2.394l0,0
							C678.888,685.218,679.966,687.162,681.811,687.691z"/>
					</g>
					<g>
						<g>
							<path fill="#B0ABC5" d="M773.345,712.423H669.017c-6.825,0-11.335-7.095-8.438-13.275l36.386-77.631
								c3.172-6.769,9.973-11.092,17.448-11.092h96.05c4.976,0,8.264,5.173,6.152,9.68L773.345,712.423z"/>
							<g>
								<g>
									<path fill="#B0ABC5" d="M669.404,712.689h-74.39c-3.004,0-5.462-2.458-5.462-5.463v0c0-3.005,2.458-5.463,5.462-5.463
										h74.39c3.004,0,5.462,2.458,5.462,5.463v0C674.866,710.231,672.408,712.689,669.404,712.689z"/>
								</g>
								<g>
									<rect x="632.047" y="705.385" fill="#12264A" width="10.624" height="3.187"/>
									<rect x="621.157" y="705.385" fill="#12264A" width="7.702" height="3.187"/>
								</g>
							</g>
							<path fill="#837C91" d="M771.774,712.423H667.201c-3.754,0-6.234-3.903-4.641-7.302l39.186-83.604
								c3.172-6.769,9.973-11.092,17.448-11.092h96.05c4.976,0,8.264,5.173,6.152,9.68l-40.575,86.567
								C779.176,710.182,775.65,712.423,771.774,712.423z"/>
						</g>
						
							<ellipse transform="matrix(0.9195 0.393 -0.393 0.9195 321.1088 -238.5391)" fill="#FFFFFF" cx="743.067" cy="664.878" rx="6.374" ry="11.422"/>
					</g>
				</g>
				<rect x="438.426" y="738.853" fill="#837C91" width="25.497" height="276.244"/>
				<rect x="764.583" y="738.848" fill="#837C91" width="25.495" height="276.249"/>
				<rect x="888.879" y="738.848" fill="#837C91" width="25.495" height="276.249"/>
				<polygon fill="#333A66" points="764.583,738.848 790.078,738.848 790.078,829.967 764.583,842.622 				"/>
				<polygon fill="#333A66" points="914.374,738.848 914.374,768.279 888.879,780.934 888.879,738.848 				"/>
				<polygon fill="#333A66" points="464.137,738.304 464.137,768.116 438.312,780.934 438.312,738.304 				"/>
				<g>
					<path fill="#333A66" d="M290.181,747.095h572.333v-21.804c0-6.98-5.658-12.638-12.638-12.638H302.819
						c-6.979,0-12.638,5.658-12.638,12.638V747.095z"/>
				</g>
				<g>
					<rect x="373.929" y="687.137" fill="#C4C4C9" width="124.996" height="26.596"/>
					<rect x="441.45" y="686.835" fill="#E9EAEC" width="57.805" height="27.201"/>
					<g>
						
							<line fill="none" stroke="#978FAB" stroke-width="1.5722" stroke-miterlimit="10" x1="374.039" y1="692.032" x2="499.145" y2="692.032"/>
						
							<line fill="none" stroke="#978FAB" stroke-width="1.5722" stroke-miterlimit="10" x1="374.039" y1="697.382" x2="499.145" y2="697.382"/>
						
							<line fill="none" stroke="#978FAB" stroke-width="1.5722" stroke-miterlimit="10" x1="374.039" y1="702.731" x2="499.145" y2="702.731"/>
						
							<line fill="none" stroke="#978FAB" stroke-width="1.5722" stroke-miterlimit="10" x1="374.039" y1="708.081" x2="499.145" y2="708.081"/>
					</g>
				</g>
				<g>
					<rect x="166.899" y="792.607" fill="#66364E" width="172.809" height="221.41"/>
					<rect x="231.119" y="792.607" fill="#66364E" width="183.72" height="221.41"/>
					<g>
						<rect x="242.872" y="808.823" fill="#F47C52" width="161.101" height="58.587"/>
						<rect x="242.872" y="877.572" fill="#F47C52" width="161.101" height="58.587"/>
						<rect x="242.872" y="946.32" fill="#F47C52" width="161.101" height="58.587"/>
					</g>
					<g>
						<path fill="#FFFFFF" d="M351.692,841.255h-40.414c-1.688,0-3.069-1.381-3.069-3.07v-0.138c0-1.688,1.381-3.069,3.069-3.069
							h40.414c1.688,0,3.069,1.381,3.069,3.069v0.138C354.761,839.874,353.38,841.255,351.692,841.255z"/>
						<path fill="#FFFFFF" d="M353.261,909.519h-40.413c-1.688,0-3.069-1.381-3.069-3.069v-0.138c0-1.688,1.381-3.07,3.069-3.07
							h40.413c1.688,0,3.069,1.381,3.069,3.07v0.138C356.331,908.138,354.949,909.519,353.261,909.519z"/>
						<path fill="#FFFFFF" d="M353.261,977.784h-40.413c-1.688,0-3.069-1.381-3.069-3.07v-0.138c0-1.688,1.381-3.07,3.069-3.07
							h40.413c1.688,0,3.069,1.381,3.069,3.07v0.138C356.331,976.402,354.949,977.784,353.261,977.784z"/>
					</g>
				</g>
				<g>
					<g>
						<path fill="#FBAB41" d="M345.746,666.685v39.11h-32.669v-39.11c0-1.721,1.402-3.124,3.123-3.124h26.422
							C344.344,663.562,345.746,664.964,345.746,666.685z"/>
						<g>
							<path fill="#F26539" d="M313.481,699.102c-0.427-0.245-10.455-6.119-11.35-16.409c-0.341-3.923,1.143-6.354,2.449-7.702
								c3.589-3.707,9.554-3.494,10.222-3.458l-0.261,4.774c-1.211-0.057-4.777,0.19-6.536,2.02
								c-0.898,0.933-1.261,2.226-1.111,3.952c0.681,7.829,8.886,12.629,8.968,12.677L313.481,699.102z"/>
						</g>
						<path fill="#D04334" d="M337.679,688.463h-9.362c-3.245,0-5.876-2.631-5.876-5.877l0,0c0-3.246,2.631-5.877,5.876-5.877h9.362
							c3.245,0,5.876,2.631,5.876,5.877l0,0C343.555,685.832,340.924,688.463,337.679,688.463z"/>
					</g>
					<path fill="#F26539" d="M330.48,705.795h-17.402v-39.11c0-1.721,1.402-3.124,3.123-3.124h1.052
						c0.048,2.04,0.605,17.642,4.988,28.878C326.05,702.225,329.444,705.109,330.48,705.795z"/>
				</g>
				<g>
					
						<line fill="none" stroke="#978FAB" stroke-width="1.2781" stroke-miterlimit="10" x1="807.341" y1="692.149" x2="894.988" y2="692.149"/>
					
						<line fill="none" stroke="#978FAB" stroke-width="1.2781" stroke-miterlimit="10" x1="807.341" y1="697.196" x2="894.988" y2="697.196"/>
					
						<line fill="none" stroke="#978FAB" stroke-width="1.2781" stroke-miterlimit="10" x1="807.341" y1="701.135" x2="894.988" y2="701.135"/>
					
						<line fill="none" stroke="#978FAB" stroke-width="1.2781" stroke-miterlimit="10" x1="807.341" y1="706.181" x2="894.988" y2="706.181"/>
				</g>
				<g>
					<g>
						<g>
							<polygon fill="#FFFFFF" points="429.13,687.588 450.113,642.433 470.829,687.057 							"/>
							<rect x="412.398" y="642.698" fill="#FFFFFF" width="37.715" height="43.562"/>
							<polygon fill="#333A66" points="393.009,687.588 412.132,642.964 432.849,687.588 							"/>
						</g>
						<g>
							<g>
								<rect x="427.802" y="648.277" fill="#978FAB" width="18.857" height="1.859"/>
							</g>
							<g>
								<rect x="429.396" y="651.995" fill="#978FAB" width="18.857" height="1.859"/>
							</g>
							<g>
								<path fill="#978FAB" d="M439.842,682.087l-10.11-23.836l22.007,0.086l10.856,23.109L439.842,682.087z M432.119,659.798
									l8.756,20.643l19.221-0.469l-9.34-20.021L432.119,659.798z"/>
							</g>
						</g>
					</g>
					<g>
						
							<line fill="none" stroke="#978FAB" stroke-width="1.2984" stroke-miterlimit="10" x1="433.314" y1="663.218" x2="453.46" y2="663.218"/>
						
							<line fill="none" stroke="#978FAB" stroke-width="1.2984" stroke-miterlimit="10" x1="435.061" y1="667.567" x2="455.207" y2="667.567"/>
						
							<line fill="none" stroke="#978FAB" stroke-width="1.2984" stroke-miterlimit="10" x1="436.5" y1="671.917" x2="456.646" y2="671.917"/>
						
							<line fill="none" stroke="#978FAB" stroke-width="1.2984" stroke-miterlimit="10" x1="438.864" y1="676.266" x2="459.01" y2="676.266"/>
					</g>
					<g>
						
							<line fill="none" stroke="#978FAB" stroke-width="1.2984" stroke-miterlimit="10" x1="447.457" y1="659.532" x2="456.819" y2="680.35"/>
						
							<line fill="none" stroke="#978FAB" stroke-width="1.2984" stroke-miterlimit="10" x1="441.879" y1="659.632" x2="451.241" y2="680.45"/>
						
							<line fill="none" stroke="#978FAB" stroke-width="1.2984" stroke-miterlimit="10" x1="436.398" y1="659.236" x2="445.664" y2="680.848"/>
					</g>
				</g>
				<g>
					<g>
						
							<rect x="897.47" y="609.932" transform="matrix(0.9847 0.1743 -0.1743 0.9847 126.4732 -146.9889)" fill="#4458A4" width="5.312" height="73.311"/>
						
							<rect x="900.931" y="608.517" transform="matrix(0.9847 0.1743 -0.1743 0.9847 121.8343 -148.2607)" fill="#4458A4" width="8.234" height="22.046"/>
					</g>
					<g>
						<polygon fill="#66364E" points="887.633,692.362 882.34,691.918 888.466,618.863 891.668,614.19 893.759,619.307 						"/>
					</g>
					<g>
						<polygon fill="#132F51" points="880.276,696.095 875.062,697.11 861.054,625.15 862.862,619.781 866.268,624.135 						"/>
					</g>
					<g>
						<polygon fill="#F26539" points="891.999,712.833 869.295,712.833 861.851,652.726 899.442,652.726 						"/>
						<polygon fill="#FBAB41" points="900.559,712.833 877.855,712.833 874.506,652.726 908.003,652.726 						"/>
					</g>
				</g>
				<g>
					<g>
						<path fill="#4458A4" d="M340.029,763.537v29.242h-90.767c-6.339,0-11.754-4.049-13.778-9.705
							c-0.544-1.531-0.848-3.189-0.848-4.922c0-4.024,1.632-7.68,4.277-10.338c2.657-2.645,6.313-4.277,10.349-4.277H340.029z"/>
						<path fill="#32487E" d="M305.83,783.074v9.705h-56.568c-6.339,0-11.754-4.049-13.778-9.705H305.83z"/>
						<path fill="#12264A" d="M374.335,763.532v29.25l-90.766,0c-8.072,0-14.624-6.552-14.624-14.625
							c0-4.028,1.638-7.689,4.279-10.346c2.657-2.641,6.317-4.279,10.345-4.279L374.335,763.532z"/>
						<path fill="#E9EAEC" d="M374.335,768.546v18.753l-86.822,0c-5.181,0-9.376-4.195-9.376-9.376c0-2.59,1.053-4.93,2.741-6.635
							c1.705-1.689,4.044-2.741,6.635-2.741L374.335,768.546z"/>
					</g>
					<g>
						<path fill="#FBAB41" d="M342.004,705.408v29.25l-90.766,0c-8.072,0-14.624-6.552-14.624-14.625
							c0-4.028,1.638-7.689,4.279-10.346c2.657-2.641,6.317-4.279,10.345-4.279L342.004,705.408z"/>
						<path fill="#FFD536" d="M307.517,715.172v-9.705h-56.568c-6.339,0-11.754,4.049-13.778,9.705H307.517z"/>
						<path fill="#F47C52" d="M374.335,705.408v29.25l-90.766,0c-8.072,0-14.624-6.552-14.624-14.625
							c0-4.028,1.638-7.689,4.279-10.346c2.657-2.641,6.317-4.279,10.345-4.279L374.335,705.408z"/>
						<path fill="#E9EAEC" d="M374.335,710.423v18.753l-86.822,0c-5.181,0-9.376-4.195-9.376-9.377c0-2.59,1.053-4.93,2.741-6.635
							c1.705-1.689,4.044-2.741,6.635-2.741L374.335,710.423z"/>
					</g>
					<g>
						<path fill="#A2CD3C" d="M347.279,734.826v29.255h-90.767c-8.072,0-14.613-6.554-14.613-14.627c0-2.48,0.62-4.821,1.708-6.871
							c0.683-1.278,1.556-2.455,2.569-3.48c2.657-2.645,6.313-4.277,10.337-4.277H347.279z"/>
						<path fill="#709E40" d="M333.235,734.826v7.757h-89.629c0.683-1.278,1.556-2.455,2.569-3.48
							c2.657-2.645,6.313-4.277,10.337-4.277H333.235z"/>
						<path fill="#709E40" d="M333.235,764.094v-7.757h-89.629c0.683,1.278,1.556,2.455,2.569,3.48
							c2.657,2.645,6.313,4.277,10.337,4.277H333.235z"/>
						<path fill="#4F863D" d="M392.151,734.827l0,29.25l-90.766,0c-8.073,0-14.624-6.552-14.624-14.625
							c0-4.029,1.638-7.689,4.279-10.346c2.657-2.641,6.317-4.279,10.345-4.279L392.151,734.827z"/>
						<path fill="#E9EAEC" d="M392.151,739.842l0,18.753l-86.822,0c-5.181,0-9.376-4.195-9.376-9.377c0-2.59,1.053-4.93,2.741-6.635
							c1.705-1.689,4.044-2.741,6.635-2.741L392.151,739.842z"/>
					</g>
				</g>
				<g>
					<g>
						<path fill="#55803A" d="M252.712,715.561c-12.143,16.538-36.505,19.283-36.505,19.283s-4.673-24.068,7.47-40.606
							c12.143-16.538,36.505-19.283,36.505-19.283S264.855,699.023,252.712,715.561z"/>
						<path fill="#3E6B3B" d="M201.72,705.671c11.132,10.972,10.525,29.64,10.525,29.64s-18.656,0.879-29.788-10.093
							c-11.132-10.972-10.525-29.64-10.525-29.64S190.588,694.699,201.72,705.671z"/>
						<path fill="#63B359" d="M229.31,697.372c2.261,20.393-13.806,38.91-13.806,38.91s-19.735-14.546-21.996-34.939
							c-2.262-20.393,13.806-38.91,13.806-38.91S227.048,676.979,229.31,697.372z"/>
					</g>
					<g>
						<polygon fill="#66364E" points="227.803,792.624 185.547,792.624 171.692,730.966 241.658,730.966 						"/>
						<polygon fill="#A0543C" points="243.736,792.624 201.479,792.624 195.245,730.966 257.591,730.966 						"/>
					</g>
				</g>
			</g>
		</g>
	</g>
	
		<ellipse fill="none" stroke="#15AD4B" stroke-width="10" stroke-miterlimit="10" cx="543.704" cy="553.561" rx="425.738" ry="425.773"/>
</g>
</svg>
