<?xml version="1.0" encoding="utf-8"?>
<!-- Generator: Adobe Illustrator 17.0.0, SVG Export Plug-In . SVG Version: 6.00 Build 0)  -->
<!DOCTYPE svg PUBLIC "-//W3C//DTD SVG 1.1//EN" "http://www.w3.org/Graphics/SVG/1.1/DTD/svg11.dtd">
<svg version="1.1" id="Layer_1" xmlns="http://www.w3.org/2000/svg" xmlns:xlink="http://www.w3.org/1999/xlink" x="0px" y="0px"
	 width="1080px" height="1080px" viewBox="0 0 1080 1080" enable-background="new 0 0 1080 1080" xml:space="preserve">
<g>
	<defs>
		<ellipse id="SVGID_1_" cx="541.875" cy="520.448" rx="414.28" ry="414.313"/>
	</defs>
	<clipPath id="SVGID_2_">
		<use xlink:href="#SVGID_1_"  overflow="visible"/>
	</clipPath>
	<rect x="118.566" y="26.576" clip-path="url(#SVGID_2_)" fill="#A6CDED" width="848.029" height="960.203"/>
</g>
<g>
	<path d="M296.068,574.429c-0.038,0.281,0.014,1.825,0.144,4.47c1.898,38.702,12.466,249.798,12.466,249.798l31.886-1.644
		l4.057-247.414L296.068,574.429z"/>
	<path d="M405.202,576.246c0.686,7.097-1.212,13.846-4.918,19.321c-4.737,7.023-12.478,11.96-21.587,12.84l-49.305,4.765
		c-1.466,0.142-2.912,0.171-4.337,0.089c-3.669-0.165-7.185-1.038-10.409-2.474c-0.574-0.244-1.136-0.52-1.684-0.814
		c-8.538-4.449-14.732-12.999-15.727-23.294l-0.607-15.734l106.117-11.183L405.202,576.246z"/>
	<path d="M299.368,599.144c0,0,43.355-4.702,42.832-6.269s-0.522-19.851-0.522-19.851s34.475-5.746,34.475-3.657
		c0,2.089,3.134,18.284,3.134,18.284l25.595-4.702l-0.522-27.164L293.1,567.278L299.368,599.144z"/>
	<path fill="#F7941E" d="M336.055,578.591c0,0-9.81,3.26-24.681,4.827c-5.406,0.58-11.486,0.94-18.005,0.831
		c-0.392,0-0.768-0.142-1.128-0.251L281.71,445.444c-2.774-23.194-1.959-35.496-2.257-54.631c-0.047-2.633-0.11-5.391-0.204-8.322
		c-0.063-1.739,0.125-3.369,0.517-4.921c2.037-8.134,9.731-13.807,18.146-18.038c5.061-2.539,10.389-4.561,14.887-6.253
		c2.1-0.799,0.831-0.125,3.087-0.439L336.055,578.591z"/>
	<g>
		<g>
			<path fill="#F7941E" d="M337.493,353.269l-5.582-6.131l4.524-0.687c0.078,0.409-20.75,7.223-18.47,15.72
				c1.952,7.256,4.774,16.647,8.593,26.75c11.696,30.935,26.665,53.058,44.494,65.779c37.055,26.44,94.9,29.041,97.343,29.14
				l0.096-2.523l0.189-4.634l0.767-19.09l0.12-2.678l0.162-4.258l0.121-2.884c-0.471-0.027-49.605-2.335-77.832-22.468
				c-21.509-15.347-28.83-38.06-34.104-59.497C357.171,362.756,337.91,355.461,337.493,353.269z"/>
		</g>
		<path fill="#5B183B" d="M367.477,800.686c-0.176,2.343-1.1,35.796-1.1,35.796l24.739,0.461l-0.549-41.93L367.477,800.686z"/>
		<path d="M356.078,573.272c-0.043,0.282-0.018,1.836,0.065,4.498c1.212,38.957,8.037,251.448,8.037,251.448l31.91-1.085
			l8.44-248.756L356.078,573.272z"/>
		<path fill="#FFFFFF" d="M364.084,856.979l65.266,0.472c3.892,0.028,7.068-3.123,7.094-7.038l0,0
			c0.02-3.015-1.858-5.714-4.682-6.727l-32.217-11.565l-35.301,0.611L364.084,856.979z"/>
		<g>
			
				<line fill="none" stroke="#00AEEF" stroke-width="1.4638" stroke-linecap="round" stroke-miterlimit="10" x1="398.754" y1="841.722" x2="406.412" y2="833.48"/>
			
				<line fill="none" stroke="#00AEEF" stroke-width="1.4638" stroke-linecap="round" stroke-miterlimit="10" x1="404.371" y1="844.104" x2="412.029" y2="835.861"/>
			
				<line fill="none" stroke="#00AEEF" stroke-width="1.4638" stroke-linecap="round" stroke-miterlimit="10" x1="409.751" y1="847.291" x2="418.372" y2="837.946"/>
		</g>
		<path fill="#FFFFFF" d="M308.569,856.422l65.218,2.521c3.889,0.15,7.164-2.881,7.314-6.77l0,0
			c0.116-2.995-1.676-5.736-4.465-6.832l-31.832-12.505l-35.303-0.503L308.569,856.422z"/>
		<g>
			
				<line fill="none" stroke="#27AAE1" stroke-width="1.4595" stroke-linecap="round" stroke-miterlimit="10" x1="343.707" y1="842.353" x2="351.623" y2="834.403"/>
			
				<line fill="none" stroke="#27AAE1" stroke-width="1.4595" stroke-linecap="round" stroke-miterlimit="10" x1="349.246" y1="844.895" x2="357.162" y2="836.946"/>
			
				<line fill="none" stroke="#27AAE1" stroke-width="1.4595" stroke-linecap="round" stroke-miterlimit="10" x1="354.521" y1="848.232" x2="363.435" y2="839.217"/>
		</g>
		<g>
			<path fill="#F7AD92" d="M344.248,364.156l-10.401,1.182c-6.385,0.725-12.202-3.905-12.927-10.291l-4.441-39.095
				c-0.725-6.385,3.905-12.203,10.29-12.928l10.4-1.182c6.385-0.725,12.202,3.905,12.927,10.291l4.441,39.095
				C355.263,357.613,350.633,363.431,344.248,364.156z"/>
			<path fill="#010101" d="M395.557,262.27c0.034,0.791,0.052,1.583,0.054,2.376c-0.014,3.819-0.419,7.574-1.202,11.183
				c-3.332,15.449-13.382,28.518-27.079,35.805c-6.801,3.626-14.504,5.817-22.724,6.171c-13.306,0.572-24.131,7.007-33.795-0.667
				c-3.115-2.471-5.953-5.261-8.432-8.358c-0.975-1.22-1.902-2.458-2.766-3.748c-5.272-7.863-10.101-28.04-10.537-38.182
				c-1.23-28.601,20.31-52.907,48.531-55.399c0.806-0.067,1.613-0.118,2.42-0.153c17.925-0.771,34.147,7.398,44.388,20.564
				c0.017,0.015,0.017,0.015,0.017,0.015c2.998,3.867,5.48,8.178,7.346,12.806C393.967,250.139,395.29,256.069,395.557,262.27z"/>
			<g>
				<path fill="#FBC8C0" d="M326.266,281.153c0.069,1.159-0.071,2.295-0.423,3.36c-0.391,1.275-1.054,2.66-1.948,3.675
					c-1.622,1.825-3.906,3.236-6.538,3.393l-5.655,0.343l-4.338,0.272l-0.816-12.872l0.016-0.002l-0.16-2.379l-0.115-1.848
					l-0.098-1.692l-0.034-0.437l0.016-0.002l9.977-0.614c2.521-0.16,4.871,0.677,6.68,2.159c1.096,0.9,1.985,2.062,2.591,3.365
					C325.914,278.89,326.195,279.979,326.266,281.153z"/>
				<path fill="#FCCBB5" d="M393.924,267.962l1.292,20.815l0.196,3.116c0.138,2.051,0.104,4.105-0.049,6.094
					c-1.474,18.684-15.045,34.437-33.39,38.856c-0.55,0.156-1.121,0.269-1.677,0.364c-1.97,0.429-3.977,0.673-6.043,0.813
					c-2.004,0.133-3.963,0.103-5.918-0.038c-3.815-0.26-7.513-1.023-11.008-2.219c0,0-0.016,0.002-0.033-0.012
					c-15.226-5.195-26.829-18.481-29.227-34.881c-0.073-0.496-0.143-0.977-0.184-1.477c-0.097-0.573-0.133-1.168-0.169-1.763
					l-0.035-0.312l-0.097-1.408l-0.217-3.714l-0.817-12.745l0.001-0.126l-0.002-0.016l-0.142-2.365l-0.115-1.848l-0.098-1.692
					l-0.018-0.439c-0.161-2.948,0.108-5.849,0.657-8.655c0.36-1.965,0.866-3.9,1.459-5.765c0.075-0.308,0.156-0.57,0.25-0.849
					c0.488-1.538,1.086-3.073,1.756-4.537c-0.002-0.015,0.012-0.033,0.012-0.033c2.535-5.587,6.24-10.598,10.825-14.668
					c0.917-0.813,1.868-1.6,2.841-2.341c6.787-5.093,15.059-8.351,24.112-8.907c12.107-0.745,23.51,3.433,31.969,10.831
					c4.533,3.949,7.768,8.817,10.347,14.314c0.995,2.095,1.732,4.282,2.257,6.542C393.35,261.796,393.742,264.828,393.924,267.962z"
					/>
				<path fill="#FBC8C0" d="M310.897,279.003l0.805,12.921l0.534,8.724l-3.43,0.216c-0.251,0.012-0.501,0.025-0.74,0.005
					c-5.761-0.039-10.632-4.738-10.999-10.469c-0.196-2.974,0.895-5.591,2.769-7.696c1.679-1.878,4.038-3.046,6.713-3.38
					l0.016-0.002c0.308-0.067,0.572-0.097,0.888-0.101L310.897,279.003z"/>
			</g>
			<path fill="#F7AD92" d="M353.036,338c0,0-7.726,1.404-15.71-2.237c0,0-0.016,0.002-0.033-0.012
				c-15.226-5.195-26.829-18.481-29.227-34.881c-5.761-0.039-10.632-4.738-10.999-10.469c-0.196-2.974,0.895-5.591,2.769-7.696
				c1.679-1.878,4.038-3.046,6.713-3.38l-0.002-0.016l-0.142-2.365l-0.115-1.848l-0.098-1.692l-0.034-0.437l0.016-0.002
				c-0.161-2.948,0.108-5.849,0.657-8.655c5.512-3.955,11.436-5.259,15.683,1.719c0,0,0.036,3.372,0.317,8.481
				c0.198,3.826,0.521,8.616,1.065,13.68c1.088,10.413,3.032,21.973,6.512,28.724C337.815,331.322,353.036,338,353.036,338z"/>
			<path fill="#010101" d="M393.088,237.674l-71.908,8.169c-4.137,0.47-7.907-2.531-8.377-6.668l-0.195-1.717
				c-0.47-4.137,2.53-7.907,6.668-8.377l71.907-8.169c4.137-0.47,7.907,2.531,8.377,6.668l0.195,1.716
				C400.226,233.434,397.225,237.204,393.088,237.674z"/>
			<path fill="#010101" d="M408.282,242.829c1.114,3.698,0.202,7.426-1.947,10.127c-1.766,2.22-4.397,3.78-7.417,4.123
				l-64.002,7.271c-9.18,1.043-15.776,9.33-14.733,18.511l1.175,10.347c0.39,3.435-2.1,6.564-5.535,6.954l-1.479,0.168
				c-3.448,0.392-6.561-2.086-6.953-5.535l-3.541-31.175c-0.028-0.249-0.039-0.484-0.035-0.722c-1.382-1.61-2.307-3.649-2.562-5.892
				c-0.345-3.037,0.588-5.934,2.353-8.169c1.766-2.22,4.397-3.78,7.417-4.123l84.934-9.649
				C401.375,234.45,406.709,237.608,408.282,242.829z"/>
			<g>
				<path fill="#010101" d="M389.592,269.968l-14.259,1.62c-1.217,0.138-2.326-0.744-2.464-1.962l-0.057-0.505
					c-0.138-1.217,0.744-2.326,1.961-2.464l14.259-1.62c1.217-0.138,2.326,0.744,2.464,1.962l0.057,0.505
					C391.692,268.721,390.809,269.83,389.592,269.968z"/>
				<path fill="#010101" d="M356.116,273.771l-14.259,1.62c-1.217,0.138-2.326-0.745-2.464-1.962l-0.057-0.505
					c-0.138-1.217,0.745-2.326,1.961-2.464l14.259-1.62c1.217-0.138,2.326,0.744,2.464,1.962l0.057,0.505
					C358.216,272.524,357.333,273.633,356.116,273.771z"/>
				<path fill="#FFFFFF" d="M361.815,308.687c2.513,2.891,5.579,3.751,8.896,3.546c3.956-0.245,8.192-2.508,9.179-5.814
					L361.815,308.687z"/>
				<path fill="#F7AD92" d="M375.919,295.688c0.014,0.065-0.267,0.023-0.267,0.023c0.186,2.219-1.531,4.193-6.29,4.595
					l-2.538-17.367C372.614,288.787,375.16,292.112,375.919,295.688z"/>
			</g>
		</g>
		<g>
			<g>
				<polygon fill="#ECEDEF" points="383.464,553.554 333.759,557.574 316.197,353.929 362.25,352.344 				"/>
			</g>
			<g>
				<polygon fill="#603913" points="382.458,562.18 334.266,567.128 333.406,557.271 381.597,552.323 				"/>
			</g>
			
				<rect x="354.778" y="554.597" transform="matrix(0.9962 -0.087 0.087 0.9962 -47.2953 33.7045)" width="16.846" height="10.187"/>
		</g>
		<path fill="#FBB040" d="M412.182,570.16l-8.556,0.799l-19.651,1.818c0,0-22.91-221.206-20.889-220.454
			c3.432,1.285,7.13,3.275,10.766,5.877c7.459,5.313,14.652,13.195,18.679,22.787c1.16,2.727,2.053,5.611,2.601,8.604
			c0.031,0.109,0.063,0.235,0.078,0.344C398.627,408.835,412.182,570.16,412.182,570.16z"/>
		<path fill="none" stroke="#111740" stroke-width="1.9162" stroke-linecap="round" stroke-miterlimit="10" d="M345.69,287.704
			c0,0,2.358-4.749,6.754-4.989c4.395-0.241,6.513,2.984,6.513,2.984"/>
		<path fill="none" stroke="#111740" stroke-width="1.7466" stroke-linecap="round" stroke-miterlimit="10" d="M377.203,283.323
			c0,0,1.432-4.952,5.09-5.239c3.657-0.287,6.316,3.094,6.316,3.094"/>
		<g>
			<g>
				<path fill="#F7AD92" d="M514.109,466.053c-0.121-0.262-0.583-18.684-4.108-19.14c-5.87-0.759-12.644-0.724-18.725,0.11
					l-11.644,1.597c0,0,1.198,16.161,1.23,17.006c0.446,11.762,23.153,5.79,23.153,5.79S516.801,471.912,514.109,466.053z"/>
			</g>
			<g>
				<path fill="#F7AD92" d="M502.252,454.996l27.625-3.244c1.763-0.207,3.036-1.819,2.828-3.582l-0.086-0.731
					c-0.207-1.763-1.819-3.036-3.582-2.829l-27.625,3.244c-1.763,0.207-3.036,1.819-2.829,3.582l0.086,0.731
					C498.878,453.93,500.49,455.203,502.252,454.996z"/>
			</g>
			<g>
				<path fill="#F7AD92" d="M508.981,462.767l22.325-2.622c1.763-0.207,3.036-1.819,2.828-3.582l-0.086-0.731
					c-0.207-1.763-1.819-3.036-3.582-2.829l-22.325,2.622c-1.763,0.207-3.036,1.819-2.828,3.582l0.086,0.731
					C505.606,461.701,507.218,462.974,508.981,462.767z"/>
			</g>
			<g>
				<path fill="#F7AD92" d="M499.581,472.409l26.29-3.087c1.763-0.207,3.036-1.819,2.828-3.582l-0.086-0.731
					c-0.207-1.763-1.819-3.036-3.582-2.829l-26.29,3.087c-1.763,0.207-3.036,1.819-2.829,3.582l0.086,0.731
					C496.206,471.344,497.818,472.617,499.581,472.409z"/>
			</g>
			<g>
				<path fill="#F7AD92" d="M484.986,455.104l25.078-12.029c1.6-0.768,2.282-2.705,1.514-4.306l-0.319-0.664
					c-0.771-1.607-2.699-2.285-4.306-1.514l-25.078,12.029c-1.6,0.768-2.282,2.705-1.514,4.306l0.319,0.664
					C481.448,455.19,483.386,455.872,484.986,455.104z"/>
			</g>
		</g>
		<g>
			<polygon fill="#FFFFFF" points="480.645,448.545 477.161,448.58 469.431,448.67 469.688,473.502 469.749,478.705 
				471.236,478.688 474.502,478.664 480.959,478.594 480.942,477.206 480.756,459.704 480.688,452.623 480.687,452.112 			"/>
		</g>
		<g>
			<path fill="#F7941E" d="M299.54,390.739l-5.582-6.131l-13.738-0.687c0.078,0.409-2.487,7.223-0.207,15.72
				c1.952,7.256,4.774,16.647,8.593,26.75c11.696,30.935,26.665,53.058,44.494,65.779c37.055,26.44,94.9,29.041,97.343,29.14
				l0.096-2.523l0.189-4.634l0.767-19.09l0.12-2.678l0.162-4.258l0.121-2.884c-0.471-0.027-49.605-2.335-77.832-22.468
				c-21.509-15.347-28.83-38.06-34.104-59.497C319.218,400.226,299.957,392.931,299.54,390.739z"/>
			<g>
				<g>
					<path fill="#F7AD92" d="M476.156,503.523c-0.12-0.262-0.583-18.684-4.108-19.14c-5.87-0.759-12.644-0.724-18.725,0.11
						l-11.644,1.597c0,0,1.198,16.161,1.23,17.006c0.446,11.762,23.153,5.79,23.153,5.79S478.848,509.382,476.156,503.523z"/>
				</g>
				<g>
					<path fill="#F7AD92" d="M464.299,492.466l27.625-3.244c1.763-0.207,3.036-1.819,2.828-3.582l-0.086-0.731
						c-0.207-1.763-1.819-3.036-3.582-2.829l-27.625,3.244c-1.763,0.207-3.036,1.819-2.829,3.582l0.086,0.731
						C460.925,491.4,462.536,492.673,464.299,492.466z"/>
				</g>
				<g>
					<path fill="#F7AD92" d="M471.028,500.237l22.325-2.622c1.763-0.207,3.036-1.819,2.828-3.582l-0.086-0.731
						c-0.207-1.763-1.819-3.036-3.582-2.829l-22.325,2.622c-1.763,0.207-3.036,1.819-2.828,3.582l0.086,0.731
						C467.653,499.171,469.265,500.444,471.028,500.237z"/>
				</g>
				<g>
					<path fill="#F7AD92" d="M461.627,509.88l26.29-3.087c1.763-0.207,3.036-1.819,2.828-3.582l-0.086-0.731
						c-0.207-1.763-1.819-3.036-3.582-2.829l-26.29,3.087c-1.763,0.207-3.036,1.819-2.829,3.582l0.086,0.731
						C458.253,508.814,459.865,510.087,461.627,509.88z"/>
				</g>
				<g>
					<path fill="#F7AD92" d="M447.033,492.574l25.078-12.029c1.6-0.768,2.281-2.705,1.514-4.306l-0.319-0.664
						c-0.771-1.607-2.699-2.285-4.306-1.514l-25.078,12.029c-1.6,0.768-2.282,2.705-1.514,4.306l0.319,0.664
						C443.495,492.661,445.432,493.342,447.033,492.574z"/>
				</g>
			</g>
			<g>
				<polygon fill="#FFFFFF" points="442.692,486.015 439.208,486.05 431.478,486.141 431.735,510.972 431.796,516.175 
					433.283,516.158 436.548,516.135 443.005,516.064 442.989,514.677 442.803,497.174 442.735,490.093 442.734,489.582 				"/>
			</g>
		</g>
	</g>
</g>
<ellipse fill="none" stroke="#15AD4B" stroke-width="10" stroke-miterlimit="10" cx="537.86" cy="524.047" rx="413.904" ry="413.938"/>
<path fill="#142C18" d="M653,412.333"/>
<g>
	<polygon fill="#F4B953" points="796.34,412.339 796.34,338.111 725.007,283.329 653.007,338.111 653.007,412.339 	"/>
	<path fill="#F8D08B" d="M652.681,337.333v48c0,0,84.333,46.667,143.667-46.667l-71.333-55.777L652.681,337.333z"/>
	<rect x="705.007" y="357.503" fill="#FFFFFF" width="39.333" height="54.836"/>
	<g>
		<path fill="#976A48" d="M622.139,373l-11.333-13.872l106.667-79.855c0,0,6-7.06,14,0l106.667,79.855L827.472,373l-103-77.235
			L622.139,373z"/>
		<g>
			<path fill="#976A48" d="M623.907,371.232c-3.778-4.624-7.556-9.248-11.333-13.872c-0.169,1.309-0.337,2.618-0.506,3.926
				c35.556-26.619,71.111-53.237,106.667-79.856c3.783-2.832,6.64-3.829,10.97-0.391c0.527,0.419,1.073,0.815,1.612,1.219
				c2.832,2.12,5.664,4.24,8.495,6.36c11.13,8.333,22.26,16.665,33.391,24.998c20.794,15.567,41.588,31.134,62.381,46.702
				c0.431,0.323,0.862,0.646,1.293,0.968c-0.299-1.14-0.598-2.28-0.897-3.42c-3.556,4.624-7.111,9.248-10.667,13.871
				c1.14-0.299,2.28-0.598,3.42-0.897c-34.333-25.745-68.667-51.49-103-77.235c-0.634-0.475-1.89-0.478-2.524,0
				c-34.111,25.745-68.222,51.49-102.333,77.235c-2.539,1.916-0.052,6.261,2.524,4.317c34.111-25.745,68.222-51.49,102.333-77.235
				c-0.841,0-1.682,0-2.524,0c34.333,25.745,68.667,51.49,103,77.235c1.188,0.891,2.668,0.082,3.42-0.897
				c3.556-4.624,7.111-9.248,10.667-13.872c0.897-1.167,0.081-2.688-0.897-3.42c-17.778-13.309-35.556-26.619-53.333-39.928
				c-18.058-13.519-36.549-26.613-54.218-40.641c-3.296-2.617-7.515-3.415-11.473-2.023c-1.4,0.493-2.57,1.33-3.728,2.229
				c-0.816,0.633-0.841,0.807-0.565,0.6c-1.984,1.485-3.968,2.97-5.951,4.455c-10.234,7.662-20.468,15.324-30.703,22.985
				c-22.202,16.621-44.404,33.243-66.605,49.864c-1.094,0.819-2.187,1.638-3.281,2.456c-1.373,1.028-1.604,2.582-0.506,3.926
				c3.778,4.624,7.556,9.248,11.333,13.872C622.412,377.266,625.928,373.707,623.907,371.232z"/>
		</g>
	</g>
</g>
<path fill="#4D5D7A" d="M500.333,565.497"/>
<rect x="500.333" y="556.629" fill="#8892A1" width="97.333" height="17"/>
<path fill="#4D5D7A" d="M597.667,789.833h-37.258l-0.587-0.073c-7.415-0.926-12.753-5.99-15.07-10.046l-1.252-2.19l0.047-412.136
	c1.029-10.282,9.765-15.521,14.765-16.997l1.316-0.388h38.039v19h-34.678c-0.195,0.123-0.369,0.25-0.489,0.362v403.468h35.167
	V789.833z"/>
<g>
	<polygon fill="#F4B953" points="796.542,619.262 796.542,545.034 725.208,490.252 653.208,545.034 653.208,619.262 	"/>
	<path fill="#F8D08B" d="M652.882,544.256v48c0,0,84.333,46.667,143.667-46.667l-71.333-55.777L652.882,544.256z"/>
	<rect x="705.208" y="564.426" fill="#FFFFFF" width="39.333" height="54.836"/>
	<g>
		<path fill="#976A48" d="M622.34,579.923l-11.333-13.872l106.667-79.856c0,0,6-7.06,14,0l106.667,79.856l-10.667,13.872
			l-103-77.235L622.34,579.923z"/>
		<g>
			<path fill="#976A48" d="M624.108,578.155c-3.778-4.624-7.556-9.248-11.333-13.872c-0.169,1.309-0.337,2.618-0.506,3.926
				c35.556-26.619,71.111-53.237,106.667-79.856c3.783-2.832,6.64-3.829,10.97-0.391c0.527,0.419,1.073,0.815,1.612,1.219
				c2.832,2.12,5.664,4.24,8.495,6.36c11.13,8.333,22.26,16.665,33.391,24.998c20.794,15.567,41.588,31.134,62.381,46.701
				c0.431,0.323,0.862,0.646,1.293,0.968c-0.299-1.14-0.598-2.28-0.897-3.42c-3.556,4.624-7.111,9.248-10.667,13.872
				c1.14-0.299,2.28-0.598,3.42-0.897c-34.333-25.745-68.667-51.49-103-77.235c-0.634-0.475-1.89-0.478-2.524,0
				c-34.111,25.745-68.222,51.49-102.333,77.235c-2.539,1.916-0.052,6.261,2.524,4.317c34.111-25.745,68.222-51.49,102.333-77.235
				c-0.841,0-1.682,0-2.524,0c34.333,25.745,68.667,51.49,103,77.235c1.188,0.891,2.668,0.082,3.42-0.897
				c3.556-4.624,7.111-9.248,10.667-13.872c0.897-1.167,0.081-2.688-0.897-3.42c-17.778-13.309-35.556-26.618-53.333-39.928
				c-18.058-13.519-36.549-26.613-54.218-40.641c-3.296-2.617-7.515-3.415-11.473-2.023c-1.4,0.493-2.57,1.33-3.728,2.229
				c-0.816,0.633-0.841,0.807-0.565,0.6c-1.984,1.485-3.968,2.97-5.951,4.455c-10.234,7.662-20.468,15.324-30.703,22.985
				c-22.202,16.621-44.404,33.243-66.605,49.864c-1.094,0.819-2.187,1.638-3.281,2.456c-1.373,1.028-1.604,2.582-0.506,3.926
				c3.778,4.624,7.556,9.248,11.333,13.872C622.614,584.189,626.13,580.63,624.108,578.155z"/>
		</g>
	</g>
</g>
<g>
	<polygon fill="#F4B953" points="796.542,826.006 796.542,751.778 725.208,696.996 653.208,751.778 653.208,826.006 	"/>
	<path fill="#F8D08B" d="M652.882,751v48c0,0,84.333,46.667,143.667-46.667l-71.333-55.777L652.882,751z"/>
	<rect x="705.208" y="771.17" fill="#FFFFFF" width="39.333" height="54.836"/>
	<g>
		<path fill="#976A48" d="M622.34,786.667l-11.333-13.872l106.667-79.856c0,0,6-7.06,14,0l106.667,79.856l-10.667,13.872
			l-103-77.235L622.34,786.667z"/>
		<g>
			<path fill="#976A48" d="M624.108,784.899c-3.778-4.624-7.556-9.248-11.333-13.872c-0.169,1.309-0.337,2.618-0.506,3.926
				c35.556-26.619,71.111-53.237,106.667-79.856c3.783-2.832,6.64-3.829,10.97-0.391c0.527,0.419,1.073,0.815,1.612,1.219
				c2.832,2.12,5.664,4.24,8.495,6.36c11.13,8.333,22.26,16.665,33.391,24.998c20.794,15.567,41.588,31.134,62.381,46.702
				c0.431,0.323,0.862,0.646,1.293,0.968c-0.299-1.14-0.598-2.28-0.897-3.421c-3.556,4.624-7.111,9.248-10.667,13.872
				c1.14-0.299,2.28-0.598,3.42-0.897c-34.333-25.745-68.667-51.49-103-77.235c-0.634-0.475-1.89-0.478-2.524,0
				c-34.111,25.745-68.222,51.49-102.333,77.235c-2.539,1.916-0.052,6.261,2.524,4.317c34.111-25.745,68.222-51.49,102.333-77.235
				c-0.841,0-1.682,0-2.524,0c34.333,25.745,68.667,51.49,103,77.235c1.188,0.891,2.668,0.082,3.42-0.897
				c3.556-4.624,7.111-9.248,10.667-13.872c0.897-1.167,0.081-2.688-0.897-3.42c-17.778-13.309-35.556-26.619-53.333-39.928
				c-18.058-13.519-36.549-26.613-54.218-40.641c-3.296-2.617-7.515-3.415-11.473-2.023c-1.4,0.493-2.57,1.33-3.728,2.229
				c-0.816,0.633-0.841,0.807-0.565,0.6c-1.984,1.485-3.968,2.97-5.951,4.455c-10.234,7.662-20.468,15.324-30.703,22.985
				c-22.202,16.621-44.404,33.243-66.605,49.864c-1.094,0.819-2.187,1.638-3.281,2.456c-1.373,1.028-1.604,2.582-0.506,3.926
				c3.778,4.624,7.556,9.248,11.333,13.872C622.614,790.933,626.13,787.373,624.108,784.899z"/>
		</g>
	</g>
</g>
</svg>
