<?xml version="1.0" encoding="utf-8"?>
<!-- Generator: Adobe Illustrator 17.0.0, SVG Export Plug-In . SVG Version: 6.00 Build 0)  -->
<!DOCTYPE svg PUBLIC "-//W3C//DTD SVG 1.1//EN" "http://www.w3.org/Graphics/SVG/1.1/DTD/svg11.dtd">
<svg version="1.1" id="Layer_1" xmlns="http://www.w3.org/2000/svg" xmlns:xlink="http://www.w3.org/1999/xlink" x="0px" y="0px"
	 width="1080px" height="1080px" viewBox="0 0 1080 1080" enable-background="new 0 0 1080 1080" xml:space="preserve">
<g>
	<g>
		<defs>
			<ellipse id="SVGID_1_" cx="543.875" cy="533.873" rx="414.28" ry="414.313"/>
		</defs>
		<clipPath id="SVGID_2_">
			<use xlink:href="#SVGID_1_"  overflow="visible"/>
		</clipPath>
		<rect x="120.566" y="40" clip-path="url(#SVGID_2_)" fill="#A6CDED" width="848.029" height="960.203"/>
	</g>
	
		<ellipse fill="none" stroke="#15AD4B" stroke-width="10" stroke-miterlimit="10" cx="539.86" cy="537.471" rx="413.904" ry="413.938"/>
</g>
<g>
	<defs>
		<circle id="SVGID_3_" cx="725.584" cy="649.113" r="130.831"/>
	</defs>
	<clipPath id="SVGID_4_">
		<use xlink:href="#SVGID_3_"  overflow="visible"/>
	</clipPath>
	<circle clip-path="url(#SVGID_4_)" fill="#F26B38" cx="727.205" cy="650.386" r="130.831"/>
	<circle clip-path="url(#SVGID_4_)" fill="#F8973B" cx="654.843" cy="650.386" r="130.831"/>
</g>
<g>
	<g>
		<path fill="#FFFFFF" d="M731.29,637.502v14.236h-17.971v25.14c0,3.098,0.147,6.044,0.459,8.834
			c0.294,2.795,1.01,5.319,2.111,7.572c1.12,2.258,2.735,4.075,4.846,5.452c2.129,1.381,5.002,2.171,8.637,2.373
			c4.176,0,8.242-1.042,12.217-3.13c3.974-2.083,7.471-4.809,10.5-8.178c3.029-3.364,5.452-7.081,7.269-11.156
			c1.817-4.071,2.726-8.128,2.726-12.166c0-3.768-0.973-7.269-2.928-10.5c-1.955-3.231-5.149-5.856-9.591-7.875l12.217-9.591
			c5.048,3.772,8.747,8.045,11.106,12.822c2.359,4.782,3.534,9.761,3.534,14.943c0,5.856-1.248,11.698-3.736,17.517
			c-2.487,5.824-5.856,11.092-10.096,15.801c-4.24,4.713-9.105,8.531-14.594,11.459c-5.48,2.928-11.216,4.392-17.21,4.392
			c-6.728,0-12.161-1.276-16.31-3.837c-4.13-2.556-7.352-5.938-9.637-10.147c-2.285-4.204-3.837-9.018-4.644-14.438
			c-0.808-5.415-1.212-11.019-1.212-16.81v-18.476h-24.029v-14.236h24.029v-20.899c0-2.556-0.138-5.149-0.404-7.774
			c-0.266-2.625-0.872-5.03-1.817-7.219c-0.945-2.184-2.304-4.02-4.094-5.502c-1.781-1.478-4.222-2.354-7.315-2.625l6.664-10.702
			c4.644,1.955,8.38,3.924,11.207,5.906c2.827,1.987,4.984,4.277,6.462,6.865c1.478,2.593,2.46,5.691,2.928,9.289
			c0.468,3.603,0.707,7.994,0.707,13.176v19.486H731.29z"/>
		<g>
			<path fill="#FFFFFF" d="M728.79,637.502c0,4.745,0,9.491,0,14.236c0.833-0.833,1.667-1.667,2.5-2.5c-5.99,0-11.981,0-17.971,0
				c-1.363,0-2.5,1.137-2.5,2.5c0,7.422,0,14.844,0,22.266c0,11.306,0.318,24.674,13.006,28.771c14.732,4.758,29.5-8.1,36.216-19.88
				c7.73-13.559,5.438-29.848-9.214-36.951c0.169,1.309,0.337,2.618,0.506,3.926c4.072-3.197,8.144-6.394,12.216-9.591
				c-1.179,0-2.357,0-3.536,0c15.405,11.94,16.965,30.138,8.281,46.893c-8.298,16.01-25.233,27.894-43.671,25.356
				c-27.275-3.754-23.141-40.435-23.141-60.79c0-1.363-1.137-2.5-2.5-2.5c-8.01,0-16.019,0-24.029,0
				c0.833,0.833,1.667,1.667,2.5,2.5c0-4.745,0-9.49,0-14.236c-0.833,0.833-1.667,1.667-2.5,2.5c8.01,0,16.019,0,24.029,0
				c1.363,0,2.5-1.137,2.5-2.5c0-6.794,0-13.588,0-20.383c0-11.902-2.443-24.432-16.13-26.137c0.72,1.254,1.439,2.508,2.159,3.762
				c2.221-3.567,4.442-7.135,6.664-10.702c-1.14,0.299-2.28,0.598-3.42,0.897c6.878,2.971,13.855,6.278,17.469,13.213
				c3.064,5.88,2.596,13.968,2.596,20.41c0,6.313,0,12.627,0,18.94c0,1.363,1.137,2.5,2.5,2.5c5.99,0,11.981,0,17.971,0
				c3.224,0,3.224-5,0-5c-5.99,0-11.981,0-17.971,0c0.833,0.833,1.667,1.667,2.5,2.5c0-7.13,0.031-14.261-0.011-21.392
				c-0.044-7.459-0.461-15.096-3.965-21.82c-3.625-6.958-11.743-10.722-18.565-13.669c-1.279-0.552-2.635-0.365-3.42,0.897
				c-2.221,3.567-4.442,7.135-6.664,10.702c-1.105,1.775,0.392,3.542,2.159,3.762c11.927,1.485,11.13,15.425,11.13,24.65
				c0,5.623,0,11.246,0,16.87c0.833-0.833,1.667-1.667,2.5-2.5c-8.01,0-16.019,0-24.029,0c-1.363,0-2.5,1.137-2.5,2.5
				c0,4.745,0,9.491,0,14.236c0,1.363,1.137,2.5,2.5,2.5c8.01,0,16.019,0,24.029,0c-0.833-0.833-1.667-1.667-2.5-2.5
				c0,11.153-0.405,22.384,0.957,33.474c1.104,8.982,3.977,17.612,10.302,24.266c6.05,6.365,14.579,8.318,23.044,8.467
				c19.135,0.336,35.536-15.048,43.358-31.316c8.545-17.771,5.169-37.667-10.595-49.886c-1.181-0.916-2.355-0.927-3.536,0
				c-4.072,3.197-8.144,6.394-12.217,9.591c-1.224,0.961-0.839,3.274,0.506,3.926c14.612,7.084,12.828,22.509,4.779,34.343
				c-7.082,10.412-29.545,22.939-35.917,5.18c-2.312-6.444-1.346-14.71-1.346-21.567c0-5.494,0-10.987,0-16.481
				c-0.833,0.833-1.667,1.667-2.5,2.5c5.99,0,11.981,0,17.971,0c1.363,0,2.5-1.137,2.5-2.5c0-4.745,0-9.49,0-14.236
				C733.79,634.278,728.79,634.278,728.79,637.502z"/>
		</g>
	</g>
</g>
<g>
	<g>
		<path fill="#FFFFFF" d="M821.103,384.839c2.092,2.088,2.092,5.462,0,7.532l-43.172,43.195c-2.092,2.088-5.462,2.088-7.536,0
			l-43.19-43.195c-2.092-2.088-2.092-5.467,0-7.532l4.935-4.935c2.111-2.111,5.555-2.065,7.62,0.088l25.507,26.775v-63.86
			c0-2.953,2.379-5.333,5.333-5.333h7.11c2.953,0,5.333,2.379,5.333,5.333v63.86l25.507-26.775c2.065-2.176,5.509-2.222,7.62-0.088
			L821.103,384.839z"/>
		<g>
			<path fill="#FFFFFF" d="M818.945,386.1c3.203,4.185-4.206,9.102-6.89,11.787c-5.471,5.474-10.942,10.948-16.414,16.422
				c-5.055,5.058-10.111,10.116-15.166,15.174c-2.416,2.417-5.539,7.087-9.024,3.601c-9.494-9.495-18.988-18.99-28.482-28.485
				c-4.192-4.193-8.385-8.385-12.577-12.578c-1.672-1.672-3.389-3.447-0.99-5.846c1.714-1.714,5.726-7.422,8.801-4.194
				c8.432,8.851,16.863,17.702,25.295,26.553c1.52,1.595,4.268,0.374,4.268-1.768c0-11.308,0-22.616,0-33.924
				c0-7.368,0-14.737,0-22.105c0-3.541-1.526-10.663,4.131-10.663c2.217,0,8.645-1.089,8.645,3.016c0,1.516,0,3.031,0,4.547
				c0,6.755,0,13.51,0,20.264c0,12.788,0,25.576,0,38.363c0,0.167,0,0.334,0,0.502c0,2.141,2.748,3.363,4.268,1.768
				c5.597-5.875,11.193-11.75,16.79-17.625c2.714-2.849,5.429-5.699,8.143-8.548c3.488-3.662,7.435,2.086,9.593,4.245
				c2.282,2.282,5.817-1.254,3.536-3.536c-3.773-3.773-6.995-8.26-12.943-6.832c-3.145,0.755-6.131,5.117-8.204,7.293
				c-6.817,7.156-13.633,14.311-20.45,21.467c1.423,0.589,2.845,1.179,4.268,1.768c0-11.308,0-22.616,0-33.924
				c0-7.368,0-14.737,0-22.105c0-3.086,0.898-8.636-0.882-11.441c-3.346-5.272-13.571-5.943-18.662-2.712
				c-3.922,2.49-3.232,7.66-3.232,11.621c0,14.867,0,29.733,0,44.6c0,4.654,0,9.308,0,13.962c1.423-0.589,2.845-1.178,4.268-1.768
				c-8.23-8.64-16.461-17.279-24.691-25.919c-5.208-5.467-10.282-2.633-14.774,1.859c-4.361,4.361-6.046,9.285-1.209,14.122
				c9.644,9.645,19.287,19.289,28.931,28.934c4.059,4.06,8.118,8.119,12.177,12.179c3.524,3.524,8.514,4.879,12.469,0.921
				c8.746-8.75,17.492-17.501,26.237-26.251c4.667-4.67,9.335-9.34,14.002-14.009c3.737-3.739,7.084-8.033,3.086-13.258
				C821.331,381.053,816.984,383.539,818.945,386.1z"/>
		</g>
	</g>
</g>
<g>
	<g>
		<path fill="#FFFFFF" d="M675.019,463.93c-2.111,2.134-5.555,2.088-7.62-0.088l-25.507-26.775v63.86
			c0,2.953-2.379,5.333-5.333,5.333h-7.11c-2.953,0-5.333-2.379-5.333-5.333v-63.86l-25.507,26.775
			c-2.065,2.153-5.509,2.199-7.62,0.088l-4.935-4.935c-2.092-2.065-2.092-5.444,0-7.532l43.19-43.195
			c2.074-2.088,5.444-2.088,7.536,0l43.172,43.195c2.092,2.069,2.092,5.444,0,7.532L675.019,463.93z"/>
		<g>
			<path fill="#FFFFFF" d="M673.251,462.163c-3.035,2.423-6.035-2.136-7.57-3.747c-2.862-3.004-5.723-6.008-8.585-9.012
				c-4.479-4.702-8.958-9.403-13.436-14.105c-1.52-1.595-4.268-0.374-4.268,1.768c0,11.308,0,22.616,0,33.924
				c0,7.368,0,14.737,0,22.105c0,3.541,1.526,10.663-4.131,10.663c-2.217,0-8.645,1.089-8.645-3.016c0-1.516,0-3.031,0-4.547
				c0-6.755,0-13.51,0-20.264c0-12.788,0-25.576,0-38.363c0-0.167,0-0.334,0-0.502c0-2.141-2.748-3.363-4.268-1.768
				c-8.23,8.64-16.461,17.279-24.691,25.919c-2.434,2.555-5.052,0.792-7.032-1.188c-2.21-2.21-4.974-4.628-2.091-7.511
				c3.776-3.777,7.553-7.553,11.329-11.33c9.91-9.911,19.82-19.822,29.73-29.733c1.436-1.436,3.328-3.514,5.481-1.36
				c1.003,1.003,2.006,2.007,3.008,3.01c4.773,4.775,9.545,9.55,14.318,14.326c6.688,6.692,13.376,13.383,20.064,20.075
				c1.784,1.785,3.568,3.57,5.353,5.355C681.066,456.113,675.434,459.98,673.251,462.163c-2.282,2.282,1.254,5.817,3.536,3.536
				c4.211-4.211,10.889-10.045,4.874-16.062c-2.971-2.972-5.942-5.945-8.912-8.917c-10.377-10.382-20.754-20.765-31.131-31.147
				c-3.097-3.099-7.784-7.953-12.502-4.331c-3.064,2.352-5.66,5.282-8.388,8.01c-10.559,10.56-21.118,21.12-31.676,31.68
				c-2.993,2.993-8.837,7.361-6.803,12.324c2.78,6.785,11.263,14.022,18.128,8.356c4.643-3.832,8.607-9.035,12.753-13.388
				c4.251-4.463,8.502-8.925,12.753-13.388c-1.423-0.589-2.845-1.178-4.268-1.768c0,11.308,0,22.616,0,33.924
				c0,7.368,0,14.737,0,22.105c0,3.086-0.898,8.636,0.882,11.441c3.346,5.272,13.571,5.943,18.662,2.712
				c3.922-2.49,3.232-7.66,3.232-11.621c0-14.867,0-29.733,0-44.6c0-4.654,0-9.308,0-13.962c-1.423,0.589-2.845,1.179-4.268,1.768
				c5.597,5.875,11.193,11.75,16.79,17.625c5.103,5.357,11.712,15.754,19.872,9.238
				C679.306,463.686,675.744,460.172,673.251,462.163z"/>
		</g>
	</g>
</g>
<g>
	<g>
		<path fill="#010101" d="M446.984,284.006l-16.616-0.225c-1.418-0.019-2.562-1.146-2.542-2.505l0.008-0.564
			c0.02-1.359,1.197-2.455,2.615-2.436l16.616,0.225c1.418,0.019,2.562,1.146,2.542,2.505l-0.008,0.564
			C449.579,282.929,448.402,284.025,446.984,284.006z"/>
		<path fill="#010101" d="M407.972,283.479l-16.616-0.224c-1.418-0.019-2.562-1.147-2.542-2.505l0.008-0.564
			c0.02-1.359,1.197-2.455,2.615-2.436l16.616,0.224c1.418,0.019,2.562,1.147,2.542,2.505l-0.008,0.564
			C410.567,282.402,409.39,283.498,407.972,283.479z"/>
		<path fill="#FFFFFF" d="M409.389,322.7c2.461,3.534,5.857,4.913,9.697,5.153c4.58,0.287,9.779-1.607,11.398-5.105L409.389,322.7z"
			/>
		<path fill="#F7AD92" d="M427.498,310.382c0.006,0.074-0.31-0.013-0.31-0.013c-0.112,2.468-2.374,4.398-7.9,4.171l-0.363-19.467
			C424.717,302.323,427.153,306.34,427.498,310.382z"/>
	</g>
	<path fill="#F7AD92" d="M418.591,376.221l-10.992-0.372c-6.748-0.228-12.074-5.704-11.836-12.168l1.458-39.58
		c0.238-6.465,5.954-11.567,12.702-11.339l10.992,0.371c6.748,0.228,12.074,5.704,11.836,12.168l-1.458,39.58
		C431.055,371.347,425.339,376.449,418.591,376.221z"/>
	<g>
		<g>
			<g>
				<path fill="#FCCBB5" d="M566.412,325.515l6.574-26.635c0.419-1.7-0.689-3.419-2.463-3.821l-0.736-0.167
					c-1.774-0.402-3.569,0.66-3.989,2.36l-6.573,26.635c-0.419,1.7,0.689,3.419,2.463,3.821l0.736,0.167
					C564.197,328.277,565.992,327.215,566.412,325.515z"/>
				<path fill="#FCCBB5" d="M560.779,336.478l-0.585-22.111c-0.046-1.746-1.575-3.138-3.398-3.094l-0.756,0.018
					c-1.823,0.044-3.276,1.509-3.23,3.255l0.585,22.111c0.046,1.746,1.575,3.138,3.398,3.094l0.756-0.018
					C559.372,339.689,560.826,338.224,560.779,336.478z"/>
				<path fill="#FCCBB5" d="M571.162,342.955l10.656-23.963c0.715-1.607-0.073-3.482-1.75-4.166l-0.696-0.284
					c-1.677-0.684-3.634,0.07-4.349,1.677l-10.656,23.963c-0.714,1.607,0.073,3.482,1.75,4.166l0.696,0.284
					C568.491,345.316,570.448,344.562,571.162,342.955z"/>
				<path fill="#FCCBB5" d="M575.325,349.175l10.656-23.963c0.714-1.607-0.073-3.482-1.751-4.166l-0.696-0.284
					c-1.677-0.685-3.634,0.07-4.349,1.677l-10.656,23.963c-0.714,1.607,0.073,3.482,1.75,4.166l0.696,0.284
					C572.653,351.537,574.61,350.782,575.325,349.175z"/>
				<path fill="#FCCBB5" d="M571.3,327.503l13.964-23.877c0.891-1.524,0.319-3.469-1.272-4.323l-0.66-0.354
					c-1.59-0.854-3.621-0.305-4.512,1.218l-13.965,23.877c-0.891,1.524-0.319,3.469,1.272,4.323l0.66,0.354
					C568.378,329.575,570.408,329.026,571.3,327.503z"/>
			</g>
			<path fill="#FCCBB5" d="M561.884,314.663c-0.112,0.263-1.777,3.069-3.592,6.103c-3.133,5.24-4.918,11.122-5.21,17.154
				l-0.559,11.553c0,0,19.119,3.303,19.666,2.657c13.383-15.78,8.534-26.174,8.534-26.174L561.884,314.663z"/>
		</g>
		<polygon fill="#FFFFFF" points="547.167,348.54 551.163,338.758 580.466,350.667 574.25,361.725 		"/>
		<g>
			<path fill="#15244B" d="M437.923,367.948c0,0,55.656,37.365,58.867,39.31c5.499,3.331,12.913,4.836,15.834,3.77
				c5.135-1.804,7.421-4.069,9.981-8.2c12.643-20.324,24.567-58.532,24.567-58.532l32.849,13.601c0,0-25.673,60.192-25.751,60.397
				c-7.548,18.603-26.696,32.931-47.506,30.624c-3.118-0.346-10.893-2.273-14.207-3.403l-16.513-20.189l1.415,134.153l-128.946,1.28
				l0.328-109.934l13.365-64.158l18.596-15.454l23.569-9.489l26.92,3.157L437.923,367.948"/>
		</g>
	</g>
	<path fill="#5B183B" d="M437.614,814.656c-0.184,2.359-1.156,36.031-1.156,36.031l25.995,0.464l-0.577-42.205L437.614,814.656z"/>
	<path d="M425.636,585.748c-0.045,0.284-0.019,1.848,0.068,4.528c1.273,39.213,8.446,253.1,8.446,253.1l33.53-1.092l11.427-262.646
		L425.636,585.748z"/>
	<path fill="#5B183B" d="M378.764,814.245c-0.141,2.348-0.493,35.834-0.493,35.834l26,0.02l-1.353-41.943L378.764,814.245z"/>
	<path d="M362.578,586.913c-0.039,0.283,0.015,1.837,0.151,4.499c1.994,38.957,13.099,251.439,13.099,251.439l33.505-1.655
		l4.263-249.04L362.578,586.913z"/>
	<path d="M479.212,573.907c0.049,7.177-2.573,13.772-6.967,18.926c-5.619,6.614-14.185,10.864-23.802,10.925l-52.049,0.329
		c-1.548,0.01-3.063-0.091-4.547-0.302c-3.824-0.497-7.422-1.689-10.661-3.419c-0.578-0.296-1.14-0.624-1.686-0.968
		c-8.516-5.23-14.194-14.361-14.265-24.771l0.846-15.828l112.11-1.639L479.212,573.907z"/>
	<path fill="#F7AD92" d="M479.869,301.605c0.072,1.167-0.074,2.31-0.445,3.382c-0.411,1.284-1.108,2.677-2.047,3.7
		c-1.704,1.837-4.105,3.257-6.87,3.415l-5.942,0.345l-4.558,0.274l-0.857-12.956l0.016-0.002l-0.168-2.395l-0.121-1.861
		l-0.103-1.704l-0.036-0.44l0.016-0.002l10.483-0.618c2.649-0.161,5.118,0.682,7.019,2.173c1.152,0.906,2.086,2.075,2.722,3.387
		C479.499,299.326,479.795,300.422,479.869,301.605z"/>
	<path fill="#F7AD92" d="M371.86,291.131l0.846,13.006l0.561,8.782l-3.604,0.218c-0.264,0.012-0.527,0.026-0.778,0.005
		c-6.054-0.039-11.172-4.769-11.558-10.538c-0.206-2.994,0.941-5.627,2.91-7.747c1.764-1.89,4.244-3.066,7.054-3.403l0.016-0.002
		c0.323-0.067,0.601-0.097,0.933-0.102L371.86,291.131z"/>
	<polygon fill="#8DC63F" points="415.116,382.746 402.604,366.316 413.722,359.682 427.002,365.895 	"/>
	<g>
		<polygon points="446.607,569.563 395.73,571.184 395.543,561.226 446.42,559.605 		"/>
	</g>
	<polygon points="435.547,570.699 417.849,571.004 417.656,560.752 435.355,560.447 	"/>
	<path fill="#15244B" d="M398.544,558.315c0,0-10.487,2.132-26.173,2.452c-5.704,0.125-12.1,0.014-18.927-0.534
		c-0.411-0.027-0.796-0.176-1.167-0.295l-2.401-120.322c-1.462-20.212,0.16-30.774,1.04-47.311c0.115-2.276,0.221-4.661,0.305-7.197
		c0.043-1.506,0.341-2.899,0.849-4.212c2.643-6.879,11.062-11.241,20.147-14.308c5.464-1.84,11.175-3.215,15.996-4.363
		c2.251-0.544,0.878-0.05,3.263-0.164L398.544,558.315z"/>
	<ellipse cx="415.867" cy="274.515" rx="56.004" ry="55.483"/>
	<g>
		<path fill="#F7AD92" d="M375.977,608.066c0.122-0.266,14.283-12.916,12.184-15.875c-3.495-4.928-8.246-10.006-13.14-14.029
			l-9.373-7.703c0,0-11.871,11.695-12.513,12.283c-8.937,8.19,11.588,21.304,11.588,21.304S373.247,614.005,375.977,608.066z"/>
	</g>
	<g>
		<path fill="#F7AD92" d="M376.405,591.751l21.809,18.639c1.392,1.189,3.546,1.072,4.788-0.262l0.515-0.553
			c1.242-1.333,1.119-3.397-0.273-4.587l-21.809-18.639c-1.392-1.189-3.546-1.072-4.788,0.261l-0.515,0.553
			C374.89,588.498,375.013,590.562,376.405,591.751z"/>
	</g>
	<g>
		<path fill="#F7AD92" d="M374.986,602.008l17.625,15.063c1.392,1.189,3.546,1.072,4.788-0.262l0.515-0.553
			c1.242-1.333,1.119-3.397-0.273-4.587l-17.625-15.063c-1.392-1.189-3.546-1.072-4.788,0.262l-0.515,0.553
			C373.471,598.755,373.594,600.819,374.986,602.008z"/>
	</g>
	<g>
		<path fill="#F7AD92" d="M360.851,601.368l20.755,17.738c1.392,1.189,3.546,1.072,4.788-0.262l0.515-0.553
			c1.242-1.333,1.119-3.397-0.273-4.587l-20.755-17.738c-1.392-1.189-3.546-1.072-4.788,0.261l-0.515,0.553
			C359.336,598.115,359.459,600.179,360.851,601.368z"/>
	</g>
	<g>
		<path fill="#F7AD92" d="M364.282,578.82l26.94,10.855c1.719,0.693,3.717-0.088,4.44-1.735l0.3-0.683
			c0.726-1.654-0.085-3.558-1.811-4.254l-26.94-10.855c-1.719-0.693-3.717,0.088-4.44,1.735l-0.3,0.683
			C361.748,576.213,362.563,578.127,364.282,578.82z"/>
	</g>
	<g>
		<polygon fill="#FFFFFF" points="372.309,570.519 369.577,568.184 363.508,563.013 346.139,581.667 342.506,585.581 
			343.673,586.575 346.227,588.771 351.293,593.095 352.262,592.051 364.5,578.899 369.457,573.583 369.817,573.202 		"/>
	</g>
	<g>
		<path fill="#15244B" d="M362.091,403.034l-8.295-19.699l-2.267-1.845c-0.283,0.32-4.146,4.706-9.596,11.859
			c-4.65,6.112-10.475,14.254-16.224,23.629c-17.603,28.703-25.836,54.406-24.492,76.415c2.794,45.742,38.799,92.725,40.328,94.702
			l2.128-1.518l3.917-2.778l16.127-11.454l2.27-1.597l3.591-2.562l2.439-1.727c-0.289-0.386-30.791-40.356-32.926-75.196
			c-1.622-26.551,12.137-46.633,26.202-64.304C367.301,424.449,360.573,404.745,362.091,403.034z"/>
	</g>
	<polygon fill="#8DC63F" points="411.724,372.519 406.737,498.688 418.714,515.69 428.56,499.344 418.295,372.955 	"/>
	<polygon fill="#FFFFFF" points="437.958,374.672 415.841,362.973 389.465,376.246 389.169,360.474 437.544,360.414 	"/>
	<path fill="none" stroke="#111740" stroke-width="1.9162" stroke-linecap="round" stroke-miterlimit="10" d="M402.45,294.715
		c0,0,3.341-4.27,7.929-3.706c4.588,0.564,6.162,4.142,6.162,4.142"/>
	<path fill="none" stroke="#111740" stroke-width="1.7466" stroke-linecap="round" stroke-miterlimit="10" d="M435.849,296.129
		c0,0,2.424-4.64,6.258-4.257c3.834,0.384,5.937,4.215,5.937,4.215"/>
	<path fill="#FCCBB5" d="M465.475,293.635c0,32.366-20.442,53.702-48.815,53.702s-44.977-25.012-44.977-57.378
		s16.604-47.574,44.977-47.574S465.475,261.269,465.475,293.635z"/>
	<g>
		<path fill="#010101" d="M450.29,285.767l-17.877-0.686c-1.526-0.058-2.724-1.302-2.663-2.764l0.025-0.606
			c0.061-1.462,1.36-2.61,2.885-2.551l17.877,0.686c1.526,0.058,2.724,1.302,2.663,2.764l-0.025,0.606
			C453.114,284.677,451.816,285.825,450.29,285.767z"/>
		<path fill="#010101" d="M408.32,284.157l-17.877-0.685c-1.526-0.059-2.724-1.302-2.663-2.764l0.025-0.606
			c0.061-1.462,1.36-2.61,2.885-2.551l17.877,0.685c1.526,0.058,2.724,1.302,2.663,2.764l-0.025,0.606
			C411.144,283.068,409.846,284.216,408.32,284.157z"/>
		<path fill="#FFFFFF" d="M408.703,326.406c2.546,3.87,6.16,5.444,10.286,5.805c4.92,0.432,10.571-1.468,12.416-5.189
			L408.703,326.406z"/>
		<path fill="#F7AD92" d="M428.552,313.632c0.005,0.08-0.333-0.022-0.333-0.022c-0.192,2.653-2.683,4.67-8.624,4.278l0.176-20.96
			C425.792,304.885,428.297,309.273,428.552,313.632z"/>
	</g>
	<path fill="none" stroke="#111740" stroke-width="1.7466" stroke-linecap="round" stroke-miterlimit="10" d="M436.392,296.044
		c0,0,2.427-4.639,6.261-4.252c3.834,0.386,5.934,4.219,5.934,4.219"/>
	<path fill="none" stroke="#111740" stroke-width="1.7466" stroke-linecap="round" stroke-miterlimit="10" d="M395.453,296.044
		c0,0,2.427-4.639,6.261-4.252c3.834,0.386,5.934,4.219,5.934,4.219"/>
	<g>
		<path d="M469.313,255.299c0,0-5.045-58.735-79.125-31.888l3.498,23.724c0,0,70.304,17.624,74.274,41.932
			C467.959,289.066,485.869,269.915,469.313,255.299z"/>
		<g>
			<path d="M471.813,255.299c-0.903-10.153-5.695-20.315-12.515-27.779c-17.855-19.544-47.665-14.405-69.774-6.52
				c-1.406,0.501-1.957,1.645-1.746,3.075c1.166,7.908,2.332,15.816,3.498,23.724c0.121,0.818,0.985,1.555,1.746,1.746
				c11.456,2.883,22.748,6.694,33.714,11.065c8.717,3.474,17.286,7.54,25.12,12.731c5.828,3.862,12.331,9.143,13.693,16.39
				c0.346,1.84,2.967,2.418,4.178,1.103c9.931-10.773,12.813-26.56,1.353-37.303c-2.349-2.203-5.892,1.326-3.536,3.536
				c9.413,8.826,6.736,21.457-1.353,30.232c1.393,0.368,2.786,0.735,4.178,1.103c-1.389-7.39-7.211-12.838-12.929-17.205
				c-7.672-5.862-16.648-10.088-25.506-13.813c-12.158-5.113-24.785-9.438-37.586-12.66c0.582,0.582,1.164,1.164,1.746,1.746
				c-1.166-7.908-2.332-15.816-3.498-23.724c-0.582,1.025-1.164,2.05-1.746,3.075c20.698-7.381,47.953-12.721,64.91,5.234
				c4.338,4.594,7.344,10.382,9.262,16.365c0.794,2.478,1.655,6.385,1.788,7.879C467.096,258.484,472.099,258.511,471.813,255.299z"
				/>
		</g>
	</g>
	<g>
		<path d="M402.92,252.828l-14.011-29.418c0,0-87.833,3.383-23.418,71.958L402.92,252.828z"/>
		<g>
			<path d="M405.078,251.567c-4.67-9.806-9.34-19.612-14.011-29.418c-0.358-0.753-1.345-1.271-2.159-1.238
				c-12.945,0.519-27.453,3.679-38.106,11.292c-25.245,18.042-2.097,48.811,12.92,64.934c0.886,0.951,2.658,0.998,3.536,0
				c12.476-14.18,24.953-28.36,37.429-42.54c2.121-2.41-1.402-5.961-3.536-3.536c-12.476,14.18-24.953,28.36-37.429,42.54
				c1.178,0,2.357,0,3.536,0c-13.434-14.423-36.121-42.892-11.946-58.427c9.598-6.167,22.279-8.81,33.596-9.264
				c-0.72-0.413-1.439-0.825-2.159-1.238c4.67,9.806,9.34,19.612,14.011,29.418C402.147,257,406.457,254.462,405.078,251.567z"/>
		</g>
	</g>
	<path stroke="#000000" stroke-miterlimit="10" d="M374.378,850.079l-25.692,10.713c0,0-21.27,13.889,26.533,11.438
		s22.209-8.17,22.209-8.17v8.46h6.843V850.1L374.378,850.079z"/>
	<path stroke="#000000" stroke-miterlimit="10" d="M464.753,850.079l25.692,10.713c0,0,21.27,13.889-26.533,11.438
		s-22.209-8.17-22.209-8.17v8.46h-6.843V850.1L464.753,850.079z"/>
	<path stroke="#000000" stroke-miterlimit="10" d="M457.041,225.815c0,0,21.303,10.783,37.508,0.979c0,0-2.858,35.492-27.869,65.95"
		/>
</g>
<path fill="#FBCEC0" d="M1325.5-145.37"/>
</svg>
